<svg xmlns="http://www.w3.org/2000/svg" viewBox="0 0 750 933"><defs><style>.a{font-size:70px;font-family:AvenirNextCondensed-Regular, Avenir Next Condensed;}.a,.b,.d{fill:#c8c8c8;}.b{font-size:50px;font-family:AvenirNextCondensed-UltraLight, Avenir Next Condensed;font-weight:100;}.c{letter-spacing:-0.01em;}</style></defs><text class="a" transform="translate(223.97 517.03) scale(1.01 1)"><tspan xml:space="preserve">14    07    22</tspan></text><text class="b" transform="translate(221.28 629.29) scale(1.01 1)">Victoria B<tspan class="c" x="149.24" y="0">r</tspan><tspan x="160.74" y="0">own Bar</tspan></text><text class="b" transform="translate(296.71 699.86) scale(1.01 1)">8:00 PM</text><text class="b" transform="translate(252.03 770.43) scale(1.01 1)">Elegante sport</text><path class="d" d="M234.93,326.05q-7.91,11.54-25.41,11.53-12.87,0-20.66-6.85T178.1,312.44l13.08-5.19a25.66,25.66,0,0,0,6,11.94q4.53,5.1,12.12,5.09,11,0,14.87-8.72t3.9-23.9V187h14.76V293.74Q242.84,314.52,234.93,326.05Z"/><path class="d" d="M571.9,295.72q0,11.43-3.69,19.11a35.47,35.47,0,0,1-9.39,12.36,34.63,34.63,0,0,1-12.54,6.65,47.43,47.43,0,0,1-13.18,2H494.93V188.71h33.84a55.28,55.28,0,0,1,13.11,1.66,35.3,35.3,0,0,1,12.37,5.72,30.59,30.59,0,0,1,9.2,11q3.6,7,3.6,17.56a41.58,41.58,0,0,1-1.82,13,33.58,33.58,0,0,1-4.79,9.56,28,28,0,0,1-6.81,6.65,35.49,35.49,0,0,1-7.88,4v.42a32.47,32.47,0,0,1,8.65,3.32,30.54,30.54,0,0,1,8.53,7,36.29,36.29,0,0,1,6.44,11.22A45.42,45.42,0,0,1,571.9,295.72Zm-18.77-68.88a30,30,0,0,0-2.21-12.21,21.17,21.17,0,0,0-5.91-8,22.19,22.19,0,0,0-8.33-4.25,36.4,36.4,0,0,0-9.49-1.24H508.85v51.94h18.77a29.88,29.88,0,0,0,9.17-1.45,22.08,22.08,0,0,0,8.12-4.65,25,25,0,0,0,5.9-8.18A28.13,28.13,0,0,0,553.13,226.84Zm4.22,67.94a34.52,34.52,0,0,0-2.53-14,26.31,26.31,0,0,0-6.54-9.21,26,26,0,0,0-9-5.18,30.33,30.33,0,0,0-9.6-1.65H508.85v58.59h20.87a34.19,34.19,0,0,0,10.76-1.66,23.14,23.14,0,0,0,14.76-14.08A35.22,35.22,0,0,0,557.35,294.78Z"/><path class="d" d="M413.24,207.83c1.73,5.92,1.13,12,1.48,18.1s.54,12,.3,18c-.46,11.79-2.86,23.48-5.07,35-.49,2.55-1.06,5.05-1.78,7.55s-1.15,5.31-2,7.91-1.62,5.23-2.45,7.85-1.29,5.42-2.25,8c-1.75,4.67-2.57,10.23-5.19,14.46a64.65,64.65,0,0,0-3.5,7.2c-1.25,2.71-2.25,5.53-3.49,8.24s-2.95,5.44-4.36,8.17a49.94,49.94,0,0,1-4.77,7,56.94,56.94,0,0,1-6.53,7.43,54.38,54.38,0,0,0-5.8,6.95c-.36.48.43,1.07.83.64,2.06-2.14,3.9-4.45,6.07-6.5a46.58,46.58,0,0,0,5.54-6c1.54-2.06,3.31-4,4.65-6.2,1.49-2.42,2.71-5,4.1-7.52,2.76-5,4.71-10.39,7.14-15.52a52.49,52.49,0,0,0,2.75-5.77c.9-2.72,1.73-5.46,2.59-8.2,3.3-10.62,6.88-21.31,9.16-32.22A291.54,291.54,0,0,0,416,248.1a123.1,123.1,0,0,0-.19-20.59c-.54-6.59-.09-13.42-2.18-19.78a.19.19,0,0,0-.37.1"/><path class="d" d="M372.46,364c.09-.11.12.14.11,0s-.11-.09-.14-.12-.23-.2-.34-.3-.34-.43-.55-.69c-.7-.88-1.5-1.68-2.2-2.57a10.62,10.62,0,0,1-1.52-3,7.15,7.15,0,0,1-.47-1.7,14.28,14.28,0,0,1,0-1.73c0-1.13-.14-2.09.68-3a2.4,2.4,0,0,1,1.2-.77,1.63,1.63,0,0,1,1.47.4,6.34,6.34,0,0,1,1.2,1,5.53,5.53,0,0,1,.74,1.55,23.56,23.56,0,0,1,1.17,3,7.42,7.42,0,0,1,.08,1.76c0,.65,0,1.29,0,1.94,0,1.29-.57,2.55-.5,3.83a.14.14,0,0,0,.28,0c.28-.7.68-1.35,1-2a6.87,6.87,0,0,0,.4-2.24,9.76,9.76,0,0,0-1-6c-.31-.64-.49-1.35-.82-2a4.31,4.31,0,0,0-1.29-1.43,5.1,5.1,0,0,0-1.6-1,3.25,3.25,0,0,0-3.17,1.1,4.21,4.21,0,0,0-.82,1.3,5.4,5.4,0,0,0-.19,2.19c0,.69-.08,1.39,0,2.08a8.16,8.16,0,0,0,.56,2.13,12.62,12.62,0,0,0,2.05,3.67c.53.64,1.12,1.22,1.68,1.83a12.67,12.67,0,0,0,1,1.16,1.1,1.1,0,0,0,1,.37.54.54,0,0,0,.39-.7c0-.23-.33-.2-.45-.06"/><path class="d" d="M373.22,363a22.78,22.78,0,0,0-.86-5.44,15.74,15.74,0,0,0-.89-2.31c-.16-.35-.28-.71-.45-1a6.18,6.18,0,0,1-.59-1.31.14.14,0,0,0-.28,0,2.38,2.38,0,0,0,.29,1,11.9,11.9,0,0,1,.44,1.18c.28.78.7,1.49.95,2.3a21.92,21.92,0,0,1,1,5.56c0,.23.37.23.36,0"/><path class="d" d="M381.94,353.78a24.72,24.72,0,0,1-2.76-3.76,10,10,0,0,1-.95-2c-.2-.65-.33-1.32-.53-2a15.87,15.87,0,0,1-.92-4.57c0-1.2-.12-2.77.93-3.62,1.34-1.07,2.93.43,3.55,1.61a15.63,15.63,0,0,1,1.26,4.14,11.56,11.56,0,0,1-.2,4.79c-.14.66-.24,1.33-.44,2a2.57,2.57,0,0,0-.19,1.54c0,.17.27.14.33,0,.21-.56.69-.95.86-1.54s.25-1.37.38-2a12.15,12.15,0,0,0,.19-4,22.13,22.13,0,0,0-1.07-4.37,5.67,5.67,0,0,0-1.82-2.62,2.7,2.7,0,0,0-4.41,1.33,9.87,9.87,0,0,0-.26,3.75,17.71,17.71,0,0,0,1.05,4.17,16.72,16.72,0,0,0,1.59,4,25,25,0,0,0,2.87,3.75c.32.38.86-.17.54-.54"/><path class="d" d="M381.69,353.13a17.28,17.28,0,0,0,.09-2.49,10.27,10.27,0,0,0-.18-1.11c-.08-.45-.08-.91-.18-1.36-.17-.78-.46-1.55-.67-2.33s-.39-1.67-.6-2.49a.33.33,0,0,0-.64.08,7.09,7.09,0,0,0,.38,2.37c.21.79.47,1.56.7,2.34a8.3,8.3,0,0,1,.2,1.23c.06.41.18.8.27,1.2a16.9,16.9,0,0,1,.22,2.56.21.21,0,0,0,.41,0"/><path class="d" d="M390,340.57c-.86-1.23-1.82-2.39-2.64-3.64-.41-.62-.75-1.28-1.16-1.89a12.5,12.5,0,0,1-1-1.6,14,14,0,0,1-.75-2.38,10.26,10.26,0,0,1-.43-2.39c0-1.36.47-3.13,1.82-3.75,2.37-1.08,3.64,4.53,3.76,6s0,2.94.06,4.4a11.79,11.79,0,0,1-.22,2.44,5.07,5.07,0,0,0-.14.95c0,.39.24.75.13,1.16l.34-.05a7.56,7.56,0,0,1-.37-1.38c-.15-.53-.2-1.1-.32-1.64-.25-1.13-.6-2.19-.94-3.3a27.08,27.08,0,0,0-2.65-5.57.29.29,0,0,0-.52.22,17.35,17.35,0,0,0,1.25,2.74,19,19,0,0,1,1.22,3.08c.35,1.06.8,2.07,1.11,3.14.17.57.28,1.15.49,1.7a5.31,5.31,0,0,0,.41,1.2.19.19,0,0,0,.34,0,20.28,20.28,0,0,0,.74-3.77c0-1.43-.08-2.87-.11-4.29a13.51,13.51,0,0,0-.65-3.79,8.92,8.92,0,0,0-1.25-2.84,2.79,2.79,0,0,0-2.35-1.32,3.27,3.27,0,0,0-2.25,1.63c-1.52,2.32-.61,5.31.3,7.67a18.83,18.83,0,0,0,2.34,3.69c.95,1.35,2.07,2.56,3.08,3.87.17.23.57,0,.4-.23"/><path class="d" d="M372.75,363.46c.61-.11,1.17-.38,1.78-.5s1.41-.29,2.13-.35a23.27,23.27,0,0,1,4.09,0c2.31.2,5.11,1.54,5.81,3.95.19.67.21,1.3-.54,1.56a5.64,5.64,0,0,1-1.68.19,10.64,10.64,0,0,1-3.88-.55,31.14,31.14,0,0,1-3.81-1.85c-.59-.32-1.22-.56-1.82-.85a8.11,8.11,0,0,0-1.52-.72.31.31,0,0,0-.24.56c1,.65,2.11,1.14,3.14,1.75a34.61,34.61,0,0,0,3.37,1.86,9.4,9.4,0,0,0,3.6.89,8.93,8.93,0,0,0,3.22-.27c2.19-.76,1.28-3.34.19-4.68a8.1,8.1,0,0,0-5.84-2.84,23.67,23.67,0,0,0-4.21.07,10.25,10.25,0,0,0-2,.46c-.68.21-1.3.57-2,.77a.27.27,0,0,0,.15.52"/><path class="d" d="M372.31,364.25c1,.05,2,.11,3,.19a12.61,12.61,0,0,1,2.93.34c.85.27,1.7.58,2.55.85a6.24,6.24,0,0,0,1.12.25,2.66,2.66,0,0,1,1.15.27.23.23,0,0,0,.28-.37,5.27,5.27,0,0,0-2.05-.82c-.92-.33-1.79-.7-2.74-1a8.36,8.36,0,0,0-2.82-.22c-1.13.07-2.25.16-3.38.22a.13.13,0,0,0,0,.26"/><path class="d" d="M382.59,355.44c.25-.51.41-.93,1-1.17s1.08-.31,1.61-.49c1.16-.4,2.33-.68,3.51-1a10.11,10.11,0,0,1,3.45-.48,7.86,7.86,0,0,1,3.25,1.34,4.47,4.47,0,0,1,1.79,2.1,1.5,1.5,0,0,1-.05,1.31,2.23,2.23,0,0,1-1.34.59,10.12,10.12,0,0,1-3.25.23A27.2,27.2,0,0,1,389,357a21.91,21.91,0,0,1-3.65-1.77,8.65,8.65,0,0,0-1.63-.61,3.7,3.7,0,0,0-1.75.11.23.23,0,0,0,0,.45c.65.19,1.29.49,1.94.71a16,16,0,0,1,2.19,1c.61.33,1.21.69,1.84,1a15.76,15.76,0,0,0,2,.56,12.69,12.69,0,0,0,4.2.57,7.26,7.26,0,0,0,3.24-.81c2-1.23.43-3.9-.87-5a10.56,10.56,0,0,0-3.33-1.68,7,7,0,0,0-3.86.11,28.75,28.75,0,0,0-4.46,1.47,9.18,9.18,0,0,0-2,.9,2.76,2.76,0,0,0-.73,1.26c-.09.23.3.39.4.17"/><path class="d" d="M382,354.92a1.22,1.22,0,0,1,1.09-.24l1.17.06c.81,0,1.6-.14,2.41-.16s1.6.06,2.39.08,1.69,0,2.53,0a.23.23,0,0,0,.06-.46,14.32,14.32,0,0,0-2.77-.38,26,26,0,0,0-2.65,0c-.91.09-1.79.29-2.72.32-.66,0-1.33-.05-1.78.52-.15.19.09.46.27.28"/><path class="d" d="M391.08,339.91a11.47,11.47,0,0,1,.59-1.16,5.55,5.55,0,0,1,1.17-1.15,21.89,21.89,0,0,1,2.39-1.9c1.62-1.06,3.39-2.12,5.41-2a3.18,3.18,0,0,1,2.52,1.14,2.21,2.21,0,0,1-.24,2.49,8,8,0,0,1-1.83,1.38,5.49,5.49,0,0,1-2.9,1,29.21,29.21,0,0,1-3.1.12c-.57,0-1.11-.2-1.67-.22a6.05,6.05,0,0,0-1.69.24.13.13,0,0,0,0,.25,11.86,11.86,0,0,0,1.69.24c.63.07,1.23.27,1.87.3a18,18,0,0,0,3.44-.15,6.87,6.87,0,0,0,3-1.33,6.39,6.39,0,0,0,1.93-1.76,3,3,0,0,0,.23-2.41,3.1,3.1,0,0,0-1.9-1.69A5.77,5.77,0,0,0,399,333a9,9,0,0,0-3.1,1.3,18.51,18.51,0,0,0-3.3,2.39,10,10,0,0,0-1.28,1.33,7.88,7.88,0,0,0-.76,1.7c-.12.28.35.47.49.21"/><path class="d" d="M390.62,339.91a4.86,4.86,0,0,1,1.51-.92c.57-.3,1.09-.7,1.7-.95a11.45,11.45,0,0,1,1.83-.48,10,10,0,0,0,1.84-.56c.19-.08.13-.38-.09-.32a25.45,25.45,0,0,0-4,.88,16.17,16.17,0,0,0-1.68,1,4.83,4.83,0,0,0-1.46,1.07c-.13.18.16.4.31.24"/><path class="d" d="M396.13,325c-.7-.83-1.22-1.8-1.91-2.64a22.75,22.75,0,0,1-2.09-2.63,16.86,16.86,0,0,0-2-2.53,7.69,7.69,0,0,1-1.41-2.83,1.83,1.83,0,0,1,0-1.6,5.8,5.8,0,0,1,.86-1.29,2.94,2.94,0,0,1,2.95-.23,6.34,6.34,0,0,1,2.18,2.69,16.9,16.9,0,0,1,1,3.19,5.68,5.68,0,0,1,.28,1.15c0,.29,0,.59,0,.89a14,14,0,0,1,.29,1.62,17.15,17.15,0,0,0-.07,3.28.1.1,0,0,0,.19,0,24.41,24.41,0,0,0,.78-3.51c0-.61-.21-1.13-.22-1.73a7.29,7.29,0,0,0-.31-2,14.9,14.9,0,0,0-1.24-3.64,7.3,7.3,0,0,0-2.4-2.82,4,4,0,0,0-3.07-.18c-1.1.35-1.56,1.2-2.12,2.14s-.16,2.12.23,3.08a10.86,10.86,0,0,0,.72,1.5,9.72,9.72,0,0,0,1.29,1.51,13,13,0,0,1,1.44,1.86,9.13,9.13,0,0,0,1.3,1.48c1,1.11,1.88,2.44,3,3.49a.21.21,0,0,0,.29-.29"/><path class="d" d="M396.3,325.16a4.55,4.55,0,0,0,0-2.43,17,17,0,0,0-.67-2.54,12.77,12.77,0,0,1-.6-2,3.31,3.31,0,0,0-.76-1.64c-.17-.17-.5.06-.35.26a3.73,3.73,0,0,1,.49,1.67,10.23,10.23,0,0,0,.6,1.95,17.26,17.26,0,0,1,.61,2.35,6.42,6.42,0,0,1,.22,1.16,4.18,4.18,0,0,0,.17,1.22.13.13,0,0,0,.25,0"/><path class="d" d="M396.75,325.25a3,3,0,0,1,1.33-1,15.37,15.37,0,0,0,1.52-.88c.93-.61,1.65-1.53,2.6-2.09a15.85,15.85,0,0,1,2.92-1.51,15.38,15.38,0,0,1,1.49-.51,10.38,10.38,0,0,1,1.84-.15c1,0,2.27-.15,2.47,1.14a4.24,4.24,0,0,1-2.94,5.11,6.13,6.13,0,0,1-1.66.51c-.57,0-1.16,0-1.75,0a10.26,10.26,0,0,1-2.28-.11c-.66-.12-1.33-.28-2-.37s-1.29,0-1.93-.11a7.17,7.17,0,0,0-.81-.09,2.19,2.19,0,0,1-1.08,0v.2c.9-.4,1.86-.65,2.77-1a16.53,16.53,0,0,1,3-1.12c.92-.2,1.86-.21,2.78-.41s2.12-.3,3.16-.46c.16,0,.12-.28,0-.28a28.18,28.18,0,0,0-6.36.44,13.22,13.22,0,0,0-2.74,1.17,12.13,12.13,0,0,0-2.67,1.52.12.12,0,0,0,0,.17,4.46,4.46,0,0,0,3.05,1.08,48.09,48.09,0,0,0,4.79.55c.68,0,1.35,0,2,0a6.19,6.19,0,0,0,2-.55,6.12,6.12,0,0,0,2.89-2.08,5,5,0,0,0,.83-3.42c-.11-1-.22-2-1.2-2.45a6.93,6.93,0,0,0-3.62-.15,7.87,7.87,0,0,0-1.77.48,9.28,9.28,0,0,0-1.91.83c-.66.46-1.4.79-2,1.27s-1,1-1.52,1.39a18.24,18.24,0,0,1-2.2,1.51,3.18,3.18,0,0,0-1.35,1.19.24.24,0,0,0,.42.25"/><path class="d" d="M402.12,309.75c-.09-.71-.87-1-1.26-1.55a3.69,3.69,0,0,0-.86-.81,7.94,7.94,0,0,1-1-1.05c-.78-.86-1.72-1.54-2.53-2.37a10.6,10.6,0,0,1-1.8-2.41,3.26,3.26,0,0,1-.44-1.35,1.75,1.75,0,0,1,.73-1.35,3.84,3.84,0,0,1,2.63-1.31,3.62,3.62,0,0,1,2.61,1.09,5.78,5.78,0,0,1,1.39,2.86,8.34,8.34,0,0,1,.43,2.1c0,.64,0,1.29,0,1.93a3.48,3.48,0,0,1,0,.91,3.11,3.11,0,0,0-.11.68,13.47,13.47,0,0,0,.06,1.55c0,.07.14.07.15,0,.19-1.1.81-2,.76-3.14,0-.68,0-1.37,0-2.06a7.46,7.46,0,0,0-.39-1.91,8,8,0,0,0-1.33-3.14,4.65,4.65,0,0,0-2.49-1.63,4.15,4.15,0,0,0-2.94.29,9.48,9.48,0,0,0-1.29,1,3.59,3.59,0,0,0-1,1.26c-.78,1.9,1.32,4.19,2.57,5.37.53.49,1.11.94,1.65,1.42s.93,1,1.43,1.42a14.29,14.29,0,0,1,1.38,1.2c.29.34,1.07.63,1.16,1.07.06.27.55.22.51-.07"/><path class="d" d="M402.21,309.38a8.75,8.75,0,0,0-.74-2.08c-.26-.87-.49-1.75-.78-2.61a6.76,6.76,0,0,0-.44-1.16c-.18-.35-.4-.67-.55-1a5.25,5.25,0,0,0-1.19-1.85.19.19,0,0,0-.27.27,7.83,7.83,0,0,1,.95,1.95c.16.34.36.65.54,1a9.59,9.59,0,0,1,.45,1.16c.3.75.55,1.5.81,2.27a10.76,10.76,0,0,1,.89,2.11c0,.21.35.22.33,0"/><path class="d" d="M402.94,309.84a9.14,9.14,0,0,1,3.55-3.77c.36-.23.74-.45,1.12-.66a7.12,7.12,0,0,1,1.51-.53,5.07,5.07,0,0,1,3.05-.28c1.32.4,4,2.26,2.91,3.86a3.8,3.8,0,0,1-2.45,1.26,16.58,16.58,0,0,1-3,.47,11.74,11.74,0,0,1-3.43-.52,13.52,13.52,0,0,1-1.53-.47,1.69,1.69,0,0,0-1.28-.12.31.31,0,0,0,0,.6c.48.15.91.4,1.38.58s1.26.35,1.89.51a9.83,9.83,0,0,0,3.62.29c1.87-.23,4.71-.47,5.68-2.37s-1.05-3.68-2.52-4.47a4.76,4.76,0,0,0-3.07-.53,16.57,16.57,0,0,0-1.7.5,6.29,6.29,0,0,0-1.57.63,13.83,13.83,0,0,0-2.93,2.21,7.58,7.58,0,0,0-1.6,2.67c-.08.19.24.32.33.14"/><path class="d" d="M402.73,309.52a6.73,6.73,0,0,1,1.94-1.18,18,18,0,0,1,2.33-.94,6.63,6.63,0,0,0,.94-.43,5.16,5.16,0,0,1,1.22-.35c.87-.19,1.73-.44,2.61-.55a.17.17,0,1,0,0-.33,8.84,8.84,0,0,0-2.61.25,5,5,0,0,0-1.27.32c-.4.19-.76.43-1.18.59a16.08,16.08,0,0,0-2.28,1,7,7,0,0,0-2,1.31c-.16.19.1.46.27.28"/><path class="d" d="M407,293.65c-.36-.29-.78-.52-1.11-.84a4.15,4.15,0,0,0-1.11-.88,14,14,0,0,1-2.61-2c-.37-.34-.7-.72-1.06-1.06s-.77-.62-1.11-1a8.8,8.8,0,0,1-1.61-2.7,3.88,3.88,0,0,1-.37-2.29c.22-.91,1.21-1.22,2-1.43a2.6,2.6,0,0,1,2.77.6,6.86,6.86,0,0,1,1.5,2.55A16.19,16.19,0,0,1,405,288a4.81,4.81,0,0,0,.18.65c.07.3,0,.61.06.91.08.54.49,1,.52,1.53,0,.19.32.26.35.05a4.46,4.46,0,0,0-.16-1.3,7,7,0,0,1,0-.91,4.26,4.26,0,0,0-.16-.79c-.11-.53-.08-1.11-.18-1.65a11.26,11.26,0,0,0-.5-2c-.64-1.8-2-4.07-4.16-3.86-1.72.16-3.66,1-3.57,3a7.15,7.15,0,0,0,.81,2.71,7.62,7.62,0,0,0,1.93,2.66c.54.47,1,1,1.51,1.5s1.15.94,1.73,1.39,1.25.64,1.75,1.09a10.6,10.6,0,0,0,1.59,1.08c.24.14.52-.21.3-.38"/><path class="d" d="M406,290.09a11.45,11.45,0,0,0-.79-1.91,16.6,16.6,0,0,0-1.26-1.64c-.8-1-1.18-2.22-2.14-3.08-.13-.11-.35,0-.25.19.71,1,1.12,2.13,1.86,3.09.4.52.86,1,1.22,1.57a9.39,9.39,0,0,1,.84,1.92c.11.32.64.18.52-.14"/><path class="d" d="M407.17,294.19c0-.44.48-.8.76-1.09a8.39,8.39,0,0,0,.75-.83,27.26,27.26,0,0,1,2.74-2.63c1.6-1.46,4.25-3.79,6.57-2.57,1.49.79,2.72,3,1.32,4.41a8.16,8.16,0,0,1-4.25,1.75,20.46,20.46,0,0,1-4.07.13,12.15,12.15,0,0,1-2.25-.14,2.65,2.65,0,0,0-1.67,0,.23.23,0,0,0,0,.4,6.5,6.5,0,0,0,2,.57,15.74,15.74,0,0,0,2.17.07,19.66,19.66,0,0,0,4.2-.21c1.69-.33,3.75-.89,4.84-2.33,1.3-1.72.14-4.11-1.44-5.2-2.42-1.68-5.15.08-7,1.7-.68.58-1.3,1.22-2,1.81a12.31,12.31,0,0,0-1.6,1.63c-.52.68-1.57,1.59-1.39,2.54,0,.19.32.14.33,0"/><path class="d" d="M407.62,293.53a25.08,25.08,0,0,0,2.8-1.11c.42-.21.82-.45,1.23-.68s.89-.41,1.35-.61c.84-.38,1.51-1.05,2.36-1.45s1.76-.85,2.6-1.32a.25.25,0,0,0-.19-.45c-.46.14-.93.19-1.38.36s-.82.37-1.22.56a9.19,9.19,0,0,0-1.25.64,11.72,11.72,0,0,1-1.22.81c-.42.21-.84.35-1.24.6l-1.19.77a23.44,23.44,0,0,1-2.85,1.39c-.28.12-.08.6.2.49"/><path class="d" d="M410.84,276.87c-3.26-2-6.58-4.56-8.35-8a2,2,0,0,1,.16-2.42,2.18,2.18,0,0,1,2.07-.25,5.47,5.47,0,0,1,2.13,1.69,7.8,7.8,0,0,1,.77.95,10.66,10.66,0,0,1,.61,1.33,6.88,6.88,0,0,1,.54,1.43c.12.58.38,1.09.53,1.66.08.27.09.56.16.83s.19.57.27.86c.13.55.19,1.13.28,1.69,0,.11.21.11.22,0a6,6,0,0,0,.15-1.59,6.33,6.33,0,0,0-.12-.76c-.08-.39-.06-.76-.11-1.15-.07-.55-.3-1.06-.42-1.6a7.43,7.43,0,0,0-.5-1.51c-.24-.5-.42-1-.68-1.52a7.13,7.13,0,0,0-1-1.3,6.47,6.47,0,0,0-2.33-1.86c-1.62-.67-3.73,0-4,1.89a4.19,4.19,0,0,0,.89,2.86,21.38,21.38,0,0,0,2,2.69,23.55,23.55,0,0,0,6.36,4.66.34.34,0,0,0,.34-.58"/><path class="d" d="M410.23,277.1c-.7-1.49-1-3.12-1.75-4.61a23.25,23.25,0,0,0-1.24-2,6.82,6.82,0,0,0-1.38-1.69.21.21,0,0,0-.29.29c.47.56.89,1.18,1.3,1.78a18.49,18.49,0,0,1,1.3,2c.72,1.41,1.11,3,1.84,4.38.08.14.29,0,.22-.13"/><path class="d" d="M411.42,277.34a7,7,0,0,1,1.8-3.38,30.86,30.86,0,0,1,2.45-3.12,12.22,12.22,0,0,0,1.2-1.29,2.66,2.66,0,0,1,1.65-.92,2.81,2.81,0,0,1,2.9,1.3,4,4,0,0,1,.48,1.48,1.52,1.52,0,0,1-.65,1.25,8.48,8.48,0,0,1-2.79,1.86,32.62,32.62,0,0,1-3.48,1.09,5.44,5.44,0,0,1-1,.22c-.33,0-.65,0-1,0a3.22,3.22,0,0,0-1.49.58l-.05,0c-.21,0-.15.15.17.33.07,0,.2-.22.27-.28s.41-.3.6-.47c.61-.52,1.19-1.08,1.77-1.64,1.17-1.16,2.22-2.43,3.33-3.65a.24.24,0,0,0-.35-.34c-1.32,1.2-2.58,2.45-3.84,3.72a15.05,15.05,0,0,1-1.81,1.67c-.38.27-.94.53-.9,1.07s.6.67,1.05.58c.23-.05.45-.13.67-.19s.41-.15.62-.19a2.74,2.74,0,0,1,.7,0,8.11,8.11,0,0,0,2.37-.56c.71-.22,1.42-.43,2.12-.69a10.57,10.57,0,0,0,2-.93,9.54,9.54,0,0,0,1.53-1.24,3.43,3.43,0,0,0,1.05-1.37,2.92,2.92,0,0,0-.12-1.89,3.82,3.82,0,0,0-2.72-2.68,3.91,3.91,0,0,0-3.76,1c-.29.32-.48.7-.79,1s-.62.61-.89,1a26,26,0,0,0-1.65,2.39c-.79,1.27-1.92,2.72-1.91,4.29a.2.2,0,0,0,.39,0"/><path class="d" d="M413.21,261.71a19,19,0,0,1-4.3-3.38,8,8,0,0,1-1.34-1.88,6.86,6.86,0,0,1-.8-2c-.29-1.59,1.56-2,2.77-1.63.79.25,1.11.88,1.54,1.54a7.94,7.94,0,0,1,1,2.45c.24.94.58,1.87.73,2.83.05.29.07.59.1.89a2,2,0,0,1,0,.93.2.2,0,0,0,.27.27c.58-.29.61-1.17.58-1.73a11.2,11.2,0,0,0-.48-2.62,13.82,13.82,0,0,0-1.12-3.18,5,5,0,0,0-1.7-2c-1.31-.74-3.62-.61-4.39.86s.36,3.39,1.21,4.61a11.57,11.57,0,0,0,2.51,2.43,18.4,18.4,0,0,0,3.14,2.12c.34.17.64-.32.3-.51"/><path class="d" d="M413.26,262.1a18.34,18.34,0,0,0-.67-2.06c-.27-.67-.62-1.3-.95-2s-.67-1.07-1-1.63-.47-1-1-1.21c-.34-.11-.5.31-.32.54a7.64,7.64,0,0,1,.71,1.24,5.93,5.93,0,0,0,.48.64c.21.28.38.58.56.87a19.62,19.62,0,0,1,1,1.72,19.15,19.15,0,0,1,.78,1.94c.09.25.47.15.4-.1"/><path class="d" d="M414.38,262.33a4.3,4.3,0,0,1,.7-2.2,15.28,15.28,0,0,1,1.7-2c.61-.63,1.19-1.3,1.85-1.89a10.24,10.24,0,0,1,2.11-1.53,2,2,0,0,1,1.2-.2c.43.08.55.34.64.73a5.12,5.12,0,0,1,.14,2.13,4,4,0,0,1-1.19,2,3.2,3.2,0,0,1-.81.79c-.35.2-.75.33-1.12.51a6.89,6.89,0,0,1-1.31.56c-.46.12-.94.17-1.41.27l-1.32.24c-.45.08-.82.33-1.26.44a.17.17,0,0,0,0,.32,5.14,5.14,0,0,0,1.3,0l.57,0a5.24,5.24,0,0,0,.88-.16c.47-.09.95-.13,1.42-.24a6,6,0,0,0,1.4-.55c.44-.22.91-.39,1.33-.63a4.74,4.74,0,0,0,1-1,4.92,4.92,0,0,0,1.35-2.33,6.4,6.4,0,0,0-.15-2.54,1.65,1.65,0,0,0-1.61-1.42,3.85,3.85,0,0,0-2.57,1.08,16.79,16.79,0,0,0-2.35,2.11,19.16,19.16,0,0,0-2.25,2.6,4.94,4.94,0,0,0-.72,2.88.22.22,0,0,0,.44,0"/><path class="d" d="M413.7,262.49c.7-.52,1.48-.92,2.17-1.45a7.77,7.77,0,0,1,1-.63,5.47,5.47,0,0,0,.88-.71c.56-.5,1.2-.94,1.73-1.47a7.39,7.39,0,0,0,1.34-1.81.25.25,0,0,0-.43-.25,8.86,8.86,0,0,1-1.53,1.59c-.55.49-1.1,1-1.62,1.51a4.91,4.91,0,0,1-.86.72,5.67,5.67,0,0,0-.83.63c-.65.57-1.39,1-2,1.59-.15.13.06.4.22.28"/><path class="d" d="M414.15,247.76c-.65-.38-1.29-.79-1.93-1.2a13.5,13.5,0,0,1-1.74-1.16,11.83,11.83,0,0,1-1.23-1.41,4,4,0,0,1-1-1.68c-.06-.28-.14-.55-.22-.82s-.16-.46,0-.64a2,2,0,0,1,1.23-.38,2.55,2.55,0,0,1,2.31,1.63c.36.63.67,1.3,1,2q.24.52.51,1.05a7.74,7.74,0,0,1,.58,1.15.14.14,0,0,0,.28,0,7.74,7.74,0,0,0-.61-2.31,15.41,15.41,0,0,0-.88-2.19,3.62,3.62,0,0,0-2.95-2.19c-1.08,0-2.63.47-2.4,1.81a7,7,0,0,0,.26.89,5.07,5.07,0,0,0,.37,1.14,12.81,12.81,0,0,0,1.5,1.87,6.94,6.94,0,0,0,1.92,1.52c.88.53,1.76,1.08,2.66,1.58a.34.34,0,0,0,.34-.58"/><path class="d" d="M414.39,247.55a13,13,0,0,0-1.77-2.65c-.33-.41-.75-.71-1.11-1.08a5.92,5.92,0,0,0-1.08-1.1c-.2-.12-.48.12-.34.33a14.66,14.66,0,0,0,.91,1.17c.35.38.79.65,1.14,1a12.94,12.94,0,0,1,1.79,2.56c.15.32.61,0,.46-.27"/><path class="d" d="M415.06,248.15a13.88,13.88,0,0,1,1.1-2c.51-.68,1.18-1.25,1.73-1.9a17.16,17.16,0,0,1,3.4-3.41,1.46,1.46,0,0,1,2,.27,2.66,2.66,0,0,1,.69,2,2.73,2.73,0,0,1-1,1.71,6,6,0,0,1-1.87.92c-.87.33-1.75.63-2.59,1-.38.19-.77.36-1.14.56a5.77,5.77,0,0,1-.55.29c-.2.11-.36.34-.61.34l.17.28c.13-.24.46-.4.65-.6s.42-.59.66-.85c.56-.62,1.11-1.22,1.66-1.85,1.16-1.35,2.51-2.52,3.64-3.9a.26.26,0,0,0-.36-.37c-1.09.89-2.18,1.75-3.19,2.72a16.49,16.49,0,0,0-1.39,1.62c-.39.48-.86.91-1.24,1.4a4.78,4.78,0,0,0-.78,1.3c-.14.46.07.6.46.76.61.26,1-.09,1.57-.36a15.5,15.5,0,0,1,1.94-.9,11.65,11.65,0,0,0,3.36-1.44,3.6,3.6,0,0,0,1.59-3,3.43,3.43,0,0,0-1.65-2.91c-1.2-.67-2.25-.12-3.17.72a16,16,0,0,0-1.58,1.61c-.48.59-.92,1.21-1.38,1.82s-1.06,1.17-1.48,1.84a13.61,13.61,0,0,0-.94,2c-.1.22.22.42.33.19"/><path class="d" d="M415.76,236.21a6.29,6.29,0,0,0-1.51-.92,5.35,5.35,0,0,1-1.55-1,17.46,17.46,0,0,1-2.62-2.75,14.23,14.23,0,0,1-.91-1.42c-.14-.23-.12-.3.11-.47a1.71,1.71,0,0,1,1-.23c.6,0,1.16-.34,1.72,0a2.11,2.11,0,0,1,.78,1.09l.84,2c.14.33.22.67.36,1a1.48,1.48,0,0,0,.25.44c.1.13.32.27.33.44a.2.2,0,0,0,.38.06.9.9,0,0,0-.14-.76,4.31,4.31,0,0,1-.3-1.12,12.14,12.14,0,0,0-.85-2.24,3.36,3.36,0,0,0-.95-1.42,2,2,0,0,0-1.88-.33,8.24,8.24,0,0,1-1.11.16,2,2,0,0,0-1,.46,1,1,0,0,0-.16,1.51,15.44,15.44,0,0,0,1.11,1.77,12.41,12.41,0,0,0,1.64,1.68,9.32,9.32,0,0,0,1.88,1.5,10,10,0,0,0,1.2.42,6,6,0,0,0,1.2.5c.16,0,.34-.17.18-.3"/><path class="d" d="M415.24,235.93a10.36,10.36,0,0,0-1.34-2.55,11.14,11.14,0,0,0-2-2.14.22.22,0,0,0-.31.31c.57.74,1.25,1.4,1.81,2.15a12.91,12.91,0,0,1,1.5,2.36c.08.17.38.05.31-.13"/><path class="d" d="M416.07,235.53c-.19-.18.16-.78.24-1s.24-.63.39-.93a18.81,18.81,0,0,1,1.1-1.69,7.49,7.49,0,0,1,2.88-2.92c.17-.07.41-.2.57-.07a1.57,1.57,0,0,1,.33.73,3.33,3.33,0,0,1-.11,1.77,4.72,4.72,0,0,1-1,1.52,8.24,8.24,0,0,1-.66.78,3.76,3.76,0,0,1-.85.49,4.94,4.94,0,0,0-.81.57,2.54,2.54,0,0,1-.5.36,5.43,5.43,0,0,1-.53.17c-.34.13-.59.42-.92.54s-.67,0-.91.32a.2.2,0,0,0,0,.27,1,1,0,0,0,.9.26,3,3,0,0,0,1.08-.53,9.63,9.63,0,0,0,1.11-.46,8.4,8.4,0,0,1,1-.74,4.84,4.84,0,0,0,.93-.55,10.76,10.76,0,0,0,.84-.95,5.24,5.24,0,0,0,1.14-1.87,4,4,0,0,0,.08-2.24c-.15-.57-.47-1.27-1.11-1.37a3.09,3.09,0,0,0-2.13.9,7.75,7.75,0,0,0-1.67,1.85,23.64,23.64,0,0,0-1.43,2.42,9.73,9.73,0,0,0-.48,1.27,1.46,1.46,0,0,0,.08,1.21.19.19,0,0,0,.21.08l.13-.05a.1.1,0,0,0,.05-.17"/><path class="d" d="M415.83,235.62c.73-.57,1.46-1.15,2.17-1.75a6.24,6.24,0,0,0,.9-.88c.24-.32.35-.71.55-1a.39.39,0,0,0-.53-.53,1,1,0,0,0-.45.47c-.09.16-.15.34-.25.49a7.67,7.67,0,0,1-.85.86c-.63.67-1.28,1.32-1.94,2-.27.27.12.62.4.4"/><path class="d" d="M414.71,222.94a5.18,5.18,0,0,1-3.14-1.47c-.4-.37-.73-.8-1.1-1.2a2.41,2.41,0,0,1-.74-1.15c-.14-.88.83-2,1.66-1.25a3.91,3.91,0,0,1,.75,1.13,11.33,11.33,0,0,0,.93,1.23,7,7,0,0,1,.93,1.64c.14.29.32.56.44.86a4.52,4.52,0,0,0,.38.84.09.09,0,0,0,.16-.07,6.66,6.66,0,0,1-.11-1,4.56,4.56,0,0,0-.2-1,5.61,5.61,0,0,0-.89-1.78,14.79,14.79,0,0,1-1.14-1.47,2.83,2.83,0,0,0-1.11-1.14,1.85,1.85,0,0,0-2.48,1.47,2.13,2.13,0,0,0,.4,1.6,12.85,12.85,0,0,0,1.26,1.4,5.84,5.84,0,0,0,4,1.83.22.22,0,0,0,0-.44"/><path class="d" d="M415.05,224a10,10,0,0,0-1.62-2.21c-.32-.36-.61-.74-.94-1.09a2.65,2.65,0,0,0-.42-.4c-.14-.11-.33-.22-.35-.42a.13.13,0,0,0-.26,0,1.12,1.12,0,0,0,.5.83,25.55,25.55,0,0,1,2.78,3.47c.1.21.41,0,.31-.18"/><path class="d" d="M415.45,223.86h.16a.2.2,0,0,0,.18-.25A4.93,4.93,0,0,1,417,219.9a19.42,19.42,0,0,1,2.56-3c.37-.35.8-.48,1.16,0a2.1,2.1,0,0,1,.34,1.32c0,1.2-1.07,2.14-1.89,2.91a6.62,6.62,0,0,1-.84.58c-.3.21-.57.44-.88.62a7.84,7.84,0,0,1-.86.45,6.05,6.05,0,0,0-1,.35.27.27,0,0,0-.11.29l0,.13c0,.18.27.18.36.05a.83.83,0,0,1,.08-.12l-.29.11c.21,0,.39.14.6.17a1.27,1.27,0,0,0,.58-.06,8.08,8.08,0,0,0,1-.49,9.23,9.23,0,0,0,.89-.6,11.09,11.09,0,0,0,1-.65,5.52,5.52,0,0,0,2.31-3.7c0-1.16-.69-2.92-2.17-2.53a3.55,3.55,0,0,0-1.52,1.2,17.6,17.6,0,0,0-1.67,2c-.93,1.27-2.24,3.29-1.18,4.82l.07-.26-.14.07a.16.16,0,0,0,.08.29"/><path class="d" d="M415.42,223.68c.35-.29.72-.57,1.07-.87a5.15,5.15,0,0,0,.91-1.06c.25-.38.51-.76.78-1.12s.58-.77.83-1.17a.3.3,0,0,0-.41-.4,6.59,6.59,0,0,0-1.84,2.15c-.24.37-.47.74-.74,1.09s-.61.71-.91,1.07a.22.22,0,0,0,.31.31"/><path class="d" d="M413.88,215.2l.06.05c.08-.12.15-.24.22-.36-.26-.1-.54,0-.8-.14s-.59-.27-.88-.4a8.22,8.22,0,0,1-1.4-.95,6.9,6.9,0,0,1-1.11-1,3.35,3.35,0,0,1-.77-1c-.31-.81,1.26-.58,1.66-.55a2.55,2.55,0,0,1,2.13,1.58c.1.23.18.46.26.69a8.25,8.25,0,0,0,.38.93c.14.29.22.61.35.91s.35.68.47,1a.08.08,0,0,0,.16,0c0-.37-.08-.71-.11-1.07a4.32,4.32,0,0,0-.13-1.08c-.11-.32-.24-.62-.32-.94a3.73,3.73,0,0,0-.3-.87,3.29,3.29,0,0,0-2.8-1.9c-.8,0-2.2-.18-2.48.84a1.78,1.78,0,0,0,.51,1.46,7.32,7.32,0,0,0,1.11,1.18c.29.22.59.41.88.62a4.77,4.77,0,0,0,1,.65,2.78,2.78,0,0,0,2.23.4.22.22,0,1,0-.22-.36l-.06.05a.13.13,0,0,0,0,.2"/><path class="d" d="M414.61,216a4.63,4.63,0,0,0-1-2c-.33-.32-.69-.58-1-.91s-.71-.67-1.08-1a.13.13,0,0,0-.18.18,11.08,11.08,0,0,0,.89,1c.33.3.68.56,1,.83a4.06,4.06,0,0,1,1.19,1.91c0,.11.21.07.17,0"/><path class="d" d="M415.37,215.73c-.55-.52-.17-1.07.13-1.6a10.25,10.25,0,0,1,.94-1.56A11,11,0,0,1,418,211a2,2,0,0,1,.82-.43c.24,0,.42.1.5.39a3.2,3.2,0,0,1,0,1.41,2.63,2.63,0,0,1-.85,1.38,9.22,9.22,0,0,1-1.69,1.37,2.48,2.48,0,0,1-.74.29c-.3.07-.54.31-.83.36a.29.29,0,0,0-.07.52.88.88,0,0,0,.45.11,2.81,2.81,0,0,0,.48-.12c.14,0,.29,0,.43,0A2.11,2.11,0,0,0,417,216a8.84,8.84,0,0,0,1.86-1.48,4,4,0,0,0,1.22-1.8,4.44,4.44,0,0,0,0-1.85,1.33,1.33,0,0,0-.86-1.06,1.51,1.51,0,0,0-1.23.27,8.16,8.16,0,0,0-1.94,1.95,10.11,10.11,0,0,0-1.14,2.09,1.36,1.36,0,0,0,.28,1.81c.15.1.32-.13.19-.24"/><path class="d" d="M415.39,215.86a7.23,7.23,0,0,0,1.05-.59,4.15,4.15,0,0,0,.94-.88l.35-.51,0-.08,0,0h0l.14-.18a1.25,1.25,0,0,0,.31-.94.24.24,0,0,0-.47,0,.6.6,0,0,1-.15.23,4.11,4.11,0,0,0-.29.3c-.2.25-.36.52-.56.77a7.69,7.69,0,0,1-1.64,1.48.24.24,0,0,0,.25.42"/><path class="d" d="M413.92,209.85c-.48-.5-1-1-1.49-1.46a5.33,5.33,0,0,1-1.17-1.38,6.41,6.41,0,0,1-.54-1.52,9.28,9.28,0,0,1-.39-1.53,1.58,1.58,0,0,1,.91-1.33,1.15,1.15,0,0,1,1.47.39,3.77,3.77,0,0,1,.73,1.35,7.8,7.8,0,0,1,.44,1.91,8.8,8.8,0,0,1,0,1.15c0,.32-.14.63-.17,1s0,.72-.05,1.08.14.73,0,1a.15.15,0,0,0,.2.2.83.83,0,0,0,.38-.53c.09-.37.16-.75.26-1.13a8.78,8.78,0,0,0,.29-2.34,6.64,6.64,0,0,0-1.37-4.1,2.16,2.16,0,0,0-1.7-.86,2.28,2.28,0,0,0-1.62,1,1.87,1.87,0,0,0-.39,1.71c.17.63.37,1.29.6,1.9a5,5,0,0,0,1.09,1.87c.71.7,1.53,1.29,2.26,2a.18.18,0,0,0,.25-.25"/><path class="d" d="M414,208.88c0-.55-.08-1.11-.16-1.65a13.19,13.19,0,0,0-.39-1.53,4.61,4.61,0,0,0-1.18-2.41.13.13,0,0,0-.18.19,5.6,5.6,0,0,1,1.07,2.38,10.4,10.4,0,0,1,.34,1.36c.09.55.13,1.1.17,1.66,0,.21.35.21.33,0"/><path class="d" d="M351.48,161.36c-1.44,7.09-2.13,14.31-3.18,21.46-.55,3.73-1.32,7.44-1.55,11.2-.21,3.39-.94,6.76-1,10.15-.13,14.3,0,28.65.69,42.9.15,3.23.29,6.45.44,9.68a41.21,41.21,0,0,1,0,5,26.37,26.37,0,0,0,.28,4.62c.26,2.69.64,5.35.93,8.05.19,1.79.08,3.58.32,5.37a41.74,41.74,0,0,1,.68,4.71,90.06,90.06,0,0,0,.34,9.43c.2,1.62.93,3.06,1.18,4.68s.43,3.3.56,5c.56,7.23,2.2,14.38,3.33,21.53,1.18,7.48,3.93,14.93,6.33,22.11,1.26,3.76,2.66,7.47,4,11.2.64,1.77,1.42,3.51,1.95,5.32.62,2.13,1,4.3,1.7,6.41.26.8-.94,1.09-1.23.34-1.33-3.45-2.28-7-3.59-10.49q-1.83-4.81-3.49-9.7a178.24,178.24,0,0,1-5.77-20.12c-1.5-7-2.63-14.1-3.68-21.21-.51-3.47-.54-7-1.15-10.47-.23-1.35-.89-2.57-1.06-3.92a43.1,43.1,0,0,1-.39-5.08c0-1.55.19-3.08.2-4.63a35.36,35.36,0,0,0-.65-5c-.46-3.41-.06-7-.57-10.34-.91-6-.85-12.21-1.74-18.27a52.37,52.37,0,0,1-.65-9.27c.14-3.55-.38-7.12-.39-10.69,0-7.51.09-15,0-22.53a119.19,119.19,0,0,1,2.26-22.52c1.54-8.3,2.51-16.7,4.48-24.91,0-.19.32-.11.29.08"/><path class="d" d="M356.8,336.74c-.19-3.53.66-6.46,1.75-9.78.58-1.77,1.05-3.56,1.66-5.31.69-2,1.71-3.77,2.46-5.71a71.7,71.7,0,0,1,4.63-9.23,20.93,20.93,0,0,1,6.19-7.13c1.88-1.31,5.29-2.78,7.6-1.83s3.36,3.92,3.42,6.27c.17,6.82-5.52,12.6-10.11,17-2.88,2.76-6.09,5.25-9.08,7.9-1.58,1.39-3.16,2.76-4.69,4.2-1.27,1.19-2.46,2.89-4,3.71-.59.31-1.11-.57-.52-.89a15.56,15.56,0,0,0,3-2.87c1.17-1.18,2.44-2.3,3.67-3.42,2.13-1.95,4.43-3.83,6.68-5.63,4.63-3.69,9.35-8.27,12.33-13.45,1.57-2.73,2.64-6.63,1.26-9.66-2-4.29-7.29-2.14-10,.15a22.88,22.88,0,0,0-5.42,6.94,87.13,87.13,0,0,0-4.32,8.85c-.63,1.61-1.5,3.11-2.09,4.74s-1,3.32-1.61,5c-1.17,3.41-2.34,6.57-2.52,10.22a.14.14,0,0,1-.27,0"/><path class="d" d="M379.17,305.7c-2.36,2.4-4.42,5.05-6.63,7.58-1,1.13-1.88,2.33-2.88,3.43a33.51,33.51,0,0,0-3.29,3.94c-1.66,2.49-3.49,4.87-4.94,7.47-.78,1.41-1.48,2.83-2.12,4.31-.5,1.13-1.44,1.92-2,3a.48.48,0,0,1-.89-.24c.09-1.09,1.13-1.85,1.61-2.79.72-1.38,1.3-2.8,2.08-4.15,1.62-2.82,3.65-5.35,5.48-8a24.9,24.9,0,0,1,2.77-3.38c1.08-1.11,2-2.34,3.05-3.49,2.44-2.68,4.73-5.5,7.33-8a.27.27,0,0,1,.39.38"/><path class="d" d="M369.2,311.77a34.2,34.2,0,0,0-3.64,5.62c-1.06,1.95-2.42,3.72-3.32,5.76a28.85,28.85,0,0,0-1.37,2.65c-.33,1-.83,1.94-1.1,3a24.77,24.77,0,0,1-1,2.78c-.38,1-.93,2-1.26,2.94a.21.21,0,0,1-.42-.05,7.35,7.35,0,0,1,.77-2.73c.4-1.06.84-2,1.15-3.14s.83-2.06,1.18-3.11a28.6,28.6,0,0,1,1.42-2.61,65.5,65.5,0,0,1,3.52-5.69,34,34,0,0,1,3.88-5.56c.11-.11.27.06.17.18"/><path class="d" d="M351,299.82a103.38,103.38,0,0,1,10.26-16.59c.88-1.2,1.82-2.36,2.7-3.56a26.54,26.54,0,0,1,3.2-3.25,11.43,11.43,0,0,1,6.77-3.54c2.16-.16,4.19,0,4.82,2.31a12.58,12.58,0,0,1-.37,7.65c-2.17,5.2-7.2,8.7-11.72,11.77a92,92,0,0,1-8.22,5.44,19.87,19.87,0,0,1-4.34,1.67c-1.2.32-2.57,1-3.8.52a.41.41,0,0,1,.11-.8,12,12,0,0,0,3.33-1,32.09,32.09,0,0,0,3.55-1.43,43.27,43.27,0,0,0,6.23-3.93c4.11-3,9.12-5.26,12.28-9.36a14.9,14.9,0,0,0,1.69-2.92,10.3,10.3,0,0,0,.73-4.33c0-1.1.21-2.63-.41-3.62-.83-1.33-2.71-1.27-4.09-1.13-3,.3-5.27,2.56-7.31,4.55a49.64,49.64,0,0,0-5.29,6.44A116,116,0,0,0,351.32,300c-.12.24-.47,0-.36-.2"/><path class="d" d="M371.22,278.5c-1.73,1.69-3.23,3.61-5,5.24-.81.76-1.42,1.67-2.19,2.47a36.61,36.61,0,0,0-2.76,3.2c-.66.86-1.23,1.77-1.93,2.61s-1.77,1.82-2.49,2.85c-1.35,1.93-2.41,4.07-3.83,6l-.47-.61.21-.12a.24.24,0,0,1,.35.14.81.81,0,0,1-.09.59c-.23.49-.93.07-.72-.42.48-1.1,1.29-2.06,1.85-3.12a30.66,30.66,0,0,1,1.89-2.9,27.42,27.42,0,0,1,2.24-2.58c.84-.93,1.52-2,2.29-2.94a34.47,34.47,0,0,1,2.45-2.81c.81-.84,1.5-1.81,2.35-2.6,1.87-1.74,3.59-3.61,5.51-5.3.23-.21.57.12.34.34"/><path class="d" d="M369.45,285c-.81.86-1.61,1.79-2.34,2.73-.58.75-1.32,1.31-1.94,2s-1.42,1.6-2.15,2.38-1.67,1.51-2.45,2.33c-1.42,1.51-2.69,3.22-4.21,4.62a7.38,7.38,0,0,1-1.13.87,12.45,12.45,0,0,0-1.22,1.07,3,3,0,0,1-2.4.42c-.5-.07-.3-.75.11-.8a3.43,3.43,0,0,0,1.79-.48,11.63,11.63,0,0,1,.87-.85,11.89,11.89,0,0,0,2.36-1.95,46.72,46.72,0,0,1,4-4.22c1.53-1.29,2.83-2.81,4.28-4.18.36-.34.77-.6,1.12-.94s.6-.71.91-1.06c.69-.76,1.4-1.53,2.13-2.25a.21.21,0,0,1,.29.29"/><path class="d" d="M347.52,274c1.31-1.94,2.27-4.14,3.51-6.13.6-1,1.07-2,1.69-2.92s1.38-1.85,2.1-2.77c3-3.79,6.13-7.63,10.16-10.4a.15.15,0,0,1,.18.24,71.19,71.19,0,0,0-5.27,4.86c-1.64,1.84-3.11,3.76-4.62,5.69-.74.94-1.53,1.83-2.2,2.82s-1.13,1.92-1.73,2.87c-1.23,1.93-2.22,4-3.54,5.9-.12.17-.4,0-.28-.16"/><path class="d" d="M374,256.16a14.78,14.78,0,0,1-3,6.75c-1.74,2.28-4.58,3.81-6.93,5.38a51.34,51.34,0,0,1-7.57,4.61,35.52,35.52,0,0,1-3.77,1.41,5.74,5.74,0,0,1-3.89.22.29.29,0,0,1,0-.49c1.11-.53,2.42-.43,3.59-.81a31,31,0,0,0,3.86-1.48,66.84,66.84,0,0,0,6.72-3.87c2.29-1.42,5-2.76,6.89-4.67a12.47,12.47,0,0,0,2.22-3.2,15.43,15.43,0,0,0,1.75-3.86c0-.06.11,0,.1,0"/><path class="d" d="M365.93,251a9.24,9.24,0,0,1,4.34-1.73,3.59,3.59,0,0,1,2.17.53c.54.37,1.08.81,1.58,1.23,1,.84.88,2.08.92,3.26,0,.61-.1,2.11-1,2.08a.19.19,0,0,1-.1-.35c.59-.37.32-1.44.3-2s0-.86,0-1.29a1.91,1.91,0,0,0-.94-1.41,14.81,14.81,0,0,0-1.26-1,3.44,3.44,0,0,0-2-.35,9.32,9.32,0,0,0-3.84,1.36.19.19,0,0,1-.19-.33"/><path class="d" d="M372.89,253.91c-.72,1.25-1.43,2.52-2.14,3.78a19.41,19.41,0,0,1-2.58,3.21,18.75,18.75,0,0,1-1.31,1.61,17.29,17.29,0,0,0-1.43,1.27,15.55,15.55,0,0,1-2.82,2.74c-2.32,1.45-4.37,3.31-6.74,4.66a35.17,35.17,0,0,0-3.43,2.08c-.81.59-2.11,1.56-3.15,1.23a.46.46,0,0,1-.31-.55,1.74,1.74,0,0,0,0-.22.38.38,0,0,1,.36-.27l.2,0a.28.28,0,0,1,.24.41v.1l-.43-.33c1.24.08,2.58-1.34,3.57-1.94s2.11-1.18,3.12-1.85c.45-.29,1-.46,1.41-.75s1.13-.89,1.7-1.31,1-.81,1.55-1.18,1.07-.52,1.57-.84A21.06,21.06,0,0,0,365.2,263c.45-.44,1-.73,1.44-1.15s.73-.94,1.13-1.36a18.3,18.3,0,0,0,2.72-3.18q1.08-1.78,2.19-3.54a.12.12,0,1,1,.21.12"/><path class="d" d="M361.79,261.87a17,17,0,0,1-1.41,1.74c-.52.6-.95,1.26-1.46,1.87a19.48,19.48,0,0,1-1.71,1.69,13.47,13.47,0,0,0-1.79,1.67c-1,1.24-2.31,2.11-3.34,3.29a3.93,3.93,0,0,1-1.38,1.25,4.29,4.29,0,0,1-.81.15,2,2,0,0,1-.95.05.27.27,0,0,1-.12-.45,2.39,2.39,0,0,1,.67-.47c.26-.11.54-.1.79-.19.56-.2.93-.87,1.33-1.28.56-.56,1.17-1.06,1.76-1.59a16.1,16.1,0,0,0,1.56-1.64,11.87,11.87,0,0,1,1.67-1.41,17.64,17.64,0,0,0,1.72-1.52c.5-.51.92-1.08,1.4-1.61a23.16,23.16,0,0,0,1.65-1.79c.18-.25.6,0,.42.24"/><path class="d" d="M346.2,249a138.59,138.59,0,0,1,9.16-12.23,56.76,56.76,0,0,1,5.07-5.1,7.46,7.46,0,0,1,5.62-2c1.86.23,2.44,2,3,3.48a7.49,7.49,0,0,1-.24,6.13c-1.86,4.3-6.29,6.94-10.17,9.23a17.54,17.54,0,0,1-6.95,2.61,33.15,33.15,0,0,1-3.73,0c-.67,0-1.37-.12-1.56-.84a.47.47,0,0,1,.85-.36c.15.27,1.45.05,1.72,0a21.69,21.69,0,0,0,3.51-.2,17.82,17.82,0,0,0,5.38-2.21,57.12,57.12,0,0,0,4.86-3.1,18.14,18.14,0,0,0,4.51-4.09,8.39,8.39,0,0,0,1.52-6.31,7.9,7.9,0,0,0-.84-2.65c-.83-1.38-2.24-1.35-3.65-1a7.33,7.33,0,0,0-2.68,1.05,24.74,24.74,0,0,0-2.14,1.95,58.24,58.24,0,0,0-4.23,4.38,135.68,135.68,0,0,0-8.84,11.3c-.09.13-.3,0-.21-.12"/><path class="d" d="M361.78,239.51c-.79,1.14-1.82,2.05-2.68,3.13a16.69,16.69,0,0,1-1.39,1.4c-.54.51-1,1.07-1.58,1.59a13.09,13.09,0,0,1-3.39,2.37c-.64.3-1.32.5-2,.75s-1,.61-1.6.43c-.14,0-.16-.28,0-.31a8.24,8.24,0,0,0,1.66-.87c.63-.29,1.25-.61,1.86-.94a13.87,13.87,0,0,0,3.22-2.42c.45-.45.87-.94,1.35-1.36a18.65,18.65,0,0,0,1.4-1.27c.89-1,1.94-1.74,2.76-2.78.17-.21.51.06.37.28"/><path class="d" d="M356.24,241.78c-.93,1-1.83,1.95-2.73,2.93s-1.77,1.51-2.59,2.33a14.92,14.92,0,0,1-2.66,2c-.59.38-1.55,1.15-2.28.77a.26.26,0,0,1,.06-.47c.39-.15.8-.22,1.18-.38a12.62,12.62,0,0,0,1.22-.61,17.83,17.83,0,0,0,2.63-2,29.84,29.84,0,0,0,2.41-2.07c.86-.9,1.72-1.79,2.61-2.65a.11.11,0,0,1,.15.15"/><path class="d" d="M344.85,225.06a79.94,79.94,0,0,1,7.65-11.72c2.16-2.69,5.33-5.93,9.13-5.52,3.57.39,4.31,5,3.33,7.83a11.83,11.83,0,0,1-3.44,4.88,14.69,14.69,0,0,1-2.6,1.73,28.88,28.88,0,0,1-2.61,1.45,30.2,30.2,0,0,1-4,1.23,32.36,32.36,0,0,1-3.92.78c-.54.08-3.22.42-2.5-.91a.25.25,0,0,1,.45.06c.11.58,8.54-1.8,9.39-2.11a19.59,19.59,0,0,0,2.36-1.23,17,17,0,0,0,2.5-1.48,11.56,11.56,0,0,0,3.38-4.13,7.5,7.5,0,0,0,.23-5.34c-.6-1.76-2.26-2.31-4-2.05-3.24.49-5.86,3.43-7.82,5.84a82,82,0,0,0-7.34,10.82.12.12,0,0,1-.21-.13"/><path class="d" d="M358.24,216.72a7.32,7.32,0,0,1-1,1.49c-.43.43-.85.87-1.31,1.28-1,.91-1.89,2-3,2.82a18.13,18.13,0,0,1-3.14,1.88c-.64.32-1.29.6-1.92.93-.39.2-.67.45-1.11.21a.24.24,0,0,1,.06-.44,2.18,2.18,0,0,0,.57-.38,6.44,6.44,0,0,1,.72-.42c.52-.27,1.06-.52,1.6-.79a15.36,15.36,0,0,0,3-1.89c.89-.75,1.72-1.58,2.65-2.29.44-.33.84-.71,1.27-1.06a7.46,7.46,0,0,0,1.3-1.5c.12-.16.39,0,.28.16"/><path class="d" d="M353.63,217.9a15.26,15.26,0,0,1-3.72,4.25c-.73.64-1.5,1.23-2.22,1.88a2.64,2.64,0,0,1-1.77.94.23.23,0,0,1,0-.46c.32,0,.57-.33.8-.53l.7-.63c.73-.64,1.49-1.24,2.21-1.88a17.17,17.17,0,0,0,3.65-3.77.2.2,0,0,1,.35.2"/><path class="d" d="M346.44,196.75a34.57,34.57,0,0,1,3-4.26c1.11-1.36,2.2-2.78,3.42-4a11.27,11.27,0,0,1,3.84-2.84c1.24-.46,2.71-1.08,4.06-.76,3,.71,3.45,4.14,2.75,6.63a8.21,8.21,0,0,1-2.41,3.52,25.84,25.84,0,0,1-4,3.37A9.68,9.68,0,0,1,352,200a7.61,7.61,0,0,1-2.62-.62c-.47-.19-.93-.38-1.41-.53a1.39,1.39,0,0,1-.66-.34c-.23-.22.11-.54.35-.34a5.21,5.21,0,0,0,1.6.47,7.85,7.85,0,0,0,2.29.47A9.8,9.8,0,0,0,355.9,198a15.76,15.76,0,0,0,3.8-2.85,16,16,0,0,0,2.69-2.83c1.48-2.25,1.32-6.43-1.95-6.93a8,8,0,0,0-3.79.91,11.64,11.64,0,0,0-3.7,2.77,50.87,50.87,0,0,0-6.39,7.73.07.07,0,0,1-.12-.07"/><path class="d" d="M356.31,192.88a25.27,25.27,0,0,1-4.33,3.23,18.53,18.53,0,0,1-2.5,1.09,12.33,12.33,0,0,0-1.29.45c-.36.15-.68.37-1.06.49-.18.06-.3-.15-.23-.3.34-.66,1.22-.91,1.87-1.13.94-.33,1.86-.67,2.76-1.08a23.92,23.92,0,0,0,4.53-3.07c.19-.14.43.18.25.32"/><path class="d" d="M351.83,194a15.51,15.51,0,0,1-2.47,2,6.32,6.32,0,0,0-.56.33,5.59,5.59,0,0,0-.52.45,1.69,1.69,0,0,1-1.27.59c-.26,0-.2-.4,0-.47a3.91,3.91,0,0,0,1.06-.79,5.61,5.61,0,0,1,1.12-.64,16.15,16.15,0,0,0,2.45-1.76c.14-.11.33.14.19.26"/><path class="d" d="M348.49,178.53a26.29,26.29,0,0,0,2.33-3.31,17.64,17.64,0,0,1,1.77-2.75c1.44-1.66,3.65-2.11,5.75-2.35a2.58,2.58,0,0,1,2.38,1.27,4.5,4.5,0,0,1,.83,2.82,3.07,3.07,0,0,1-1,2.58,7,7,0,0,1-2.79,1.5,13.56,13.56,0,0,1-1.95.57c-.66.11-1.33.17-2,.29s-1.26.35-1.91.41a3.17,3.17,0,0,1-1.65-.36c-.17-.07-.08-.32.09-.33.44,0,.88.06,1.32,0a8.06,8.06,0,0,0,1.68-.33c.95-.21,2-.18,2.91-.45,1.57-.46,4.49-1.21,4.62-3.25a5,5,0,0,0-.54-2.85,3.11,3.11,0,0,0-1.16-1.2,2.31,2.31,0,0,0-1.4,0c-2,.31-3.84.78-5.14,2.43a32,32,0,0,0-1.78,2.78,27,27,0,0,1-2.12,2.76c-.16.19-.42-.08-.27-.27"/><path class="d" d="M357,175.74c-1.2.64-2.35,1.37-3.55,2-.55.3-1.09.64-1.66.9A5.29,5.29,0,0,1,350,179a.18.18,0,0,1-.13-.3,4.54,4.54,0,0,1,1.6-.63,17.45,17.45,0,0,0,1.8-.86c1.21-.59,2.38-1.25,3.59-1.82.22-.11.41.21.19.32"/><path class="d" d="M354.71,174.58a29.35,29.35,0,0,1-2.68,2.06c-.45.22-.75.66-1.23.82a2.82,2.82,0,0,1-.7.15,1.52,1.52,0,0,0-.6.07c-.17.09-.4-.09-.28-.27a1.77,1.77,0,0,1,1.09-.67,2,2,0,0,0,.57-.24,4.46,4.46,0,0,1,.71-.45,5.46,5.46,0,0,0,.74-.34c.24-.15.46-.32.69-.48a10.4,10.4,0,0,1,1.51-1,.18.18,0,0,1,.18.31"/><path class="d" d="M351.07,165.3a7.82,7.82,0,0,0,1.15-2.22,15.74,15.74,0,0,1,1-1.68,39.65,39.65,0,0,0,1.86-3.61,8.93,8.93,0,0,0,.68-4c0-1.21-.51-3-1.95-3.21-1.26-.16-2.24,1.27-2.79,2.21a8.68,8.68,0,0,0-.77,1.48c-.1.29-.1.61-.19.9a9.1,9.1,0,0,0-.29,1,11.35,11.35,0,0,0,.35,4.1,32.83,32.83,0,0,1,.72,4.29c0,.31-.46.36-.53.07-.36-1.37-.56-2.78-.92-4.16a14.16,14.16,0,0,1-.4-3.79,4.85,4.85,0,0,1,.27-1.51,11.18,11.18,0,0,1,.48-1.62,8.93,8.93,0,0,1,1.87-2.6,2.78,2.78,0,0,1,2.24-.88,2.55,2.55,0,0,1,1.82,1.56,5.7,5.7,0,0,1,.53,2.85,8.3,8.3,0,0,1-.63,3.26,23.24,23.24,0,0,1-2.16,4.06,12.6,12.6,0,0,0-1.15,2.06,5.36,5.36,0,0,1-1,1.54c-.09.09-.21,0-.14-.13"/><path class="d" d="M354,154.23a42.64,42.64,0,0,0-1.56,5.4c-.06.47-.21.93-.23,1.39a7,7,0,0,1-.08,1.21c-.09.53.05,1.51-.56,1.74-.11,0-.23-.09-.19-.19a2.7,2.7,0,0,0,0-1.06c0-.39.15-.76.17-1.14a7.37,7.37,0,0,1,.07-1.24c.09-.43.16-.86.26-1.29.38-1.7,1.24-3.25,1.78-4.91a.16.16,0,0,1,.31.09"/><path class="d" d="M351.48,156a8.67,8.67,0,0,0-.31,2c0,.76.06,1.52.08,2.27a25,25,0,0,1-.07,4.41c0,.23-.44.23-.47,0a27.9,27.9,0,0,1-.07-4.57c0-.76,0-1.52.09-2.26a9.37,9.37,0,0,1,.46-2,.15.15,0,0,1,.29.08"/><path class="d" d="M367.24,370.7c-.6-1.91-2.51-3.18-4.1-4.23s-3-2.1-4.53-3.12a53.56,53.56,0,0,0-9.95-5.07A61,61,0,0,0,337.34,355a45.12,45.12,0,0,0-12.85-1c-3.73.37-9,2.14-10.35,6.06-1.48,4.32,1.77,8.08,5.15,10.33s7.77,2.23,11.66,2.73,7.67.05,11.59-.12,8-.67,11.95-.82a24.87,24.87,0,0,0,6.32-.91,33.46,33.46,0,0,1,5.29-.7.45.45,0,0,1,.24.87c-1.81.64-3.65.62-5.5,1.13a23.55,23.55,0,0,1-6,.7c-4.5.09-9,.56-13.49.78-2.18.1-4.33.35-6.52.35a53.72,53.72,0,0,1-7.15-.68c-4-.54-7.82-1.23-10.9-4.08-2.33-2.15-4.34-5.06-3.92-8.36.46-3.59,3.67-6.1,6.95-7.25,4.06-1.43,8.65-1.33,12.85-.74a78.12,78.12,0,0,1,14,3.15,50.61,50.61,0,0,1,12.74,6.19c1.79,1.21,3.64,2.43,5.37,3.73,1.36,1,2.7,2.49,2.69,4.26a.14.14,0,0,1-.27,0"/><path class="d" d="M367.57,370.23c-2.77-.37-5.32-1.74-8-2.52a72.07,72.07,0,0,0-10.32-2.57c-6.73-1-13.35-2.15-20.17-2.61a.15.15,0,0,1,0-.3,44.07,44.07,0,0,1,5.63-.15c1.59.09,3.15.45,4.74.55,3.35.2,6.55,1,9.87,1.42a62.22,62.22,0,0,1,9.48,2.44c1.67.49,3.17,1.26,4.8,1.86,1.32.49,2.62,1.25,4,1.61.14,0,.11.29,0,.27"/><path class="d" d="M366.94,371.08c-.55-.73-1.61-.68-2.42-.88a21.32,21.32,0,0,0-3.08-.33c-2-.2-4.09-.4-6.12-.66a41.51,41.51,0,0,1-5.43-1A31.59,31.59,0,0,0,343.6,367a.14.14,0,0,1,0-.27,33.33,33.33,0,0,1,6.28.88c2.37.46,4.77.84,7.17,1.08,2.12.22,4.28.29,6.38.61a14.55,14.55,0,0,1,2.62.65,1.49,1.49,0,0,1,1,1.14.05.05,0,0,1-.1,0"/><path class="d" d="M356.47,336.32c-4.89-6.34-11.33-11.43-18.1-15.62a20.56,20.56,0,0,0-11.69-3,16.23,16.23,0,0,0-6,1c-1.67.67-4.3,2.57-4.74,4.44-.52,2.22,2,3.32,3.47,4.14a47.31,47.31,0,0,0,5.69,2.36c1.88.72,3.73,1.62,5.66,2.2a35.83,35.83,0,0,0,6.25,1c3.48.41,7,.63,10.42,1.16,1.51.22,3.14.46,4.61.81a22.7,22.7,0,0,1,3.87,1.67c.31.13.09.67-.23.55a21.4,21.4,0,0,0-4.74-1.48c-1.52-.22-3-.55-4.53-.79-3.47-.56-7.07-.79-10.56-1.07a36.65,36.65,0,0,1-10.3-2.82c-1.59-.62-3.24-1.12-4.82-1.79a19.51,19.51,0,0,1-3.81-1.94c-4.6-3.43.19-8.2,4.06-9.48a21.75,21.75,0,0,1,18.41,2.58c6.64,4.27,13.13,9.15,17.6,15.76.23.35-.3.63-.54.32"/><path class="d" d="M354.32,335.18a64,64,0,0,0-5.94-3.62c-2.12-1.12-4-2.6-6.07-3.78a39.72,39.72,0,0,0-7.49-2.93,40.42,40.42,0,0,0-7.34-1.91c-.35,0-.21-.52.08-.56,2.53-.29,5.13.9,7.48,1.66a45.12,45.12,0,0,1,7.32,2.76c2.19,1.15,4.05,2.8,6.24,3.95a39.3,39.3,0,0,1,6,4.11c.18.15-.06.45-.25.32"/><path class="d" d="M355.78,336.93a4.26,4.26,0,0,0-1.8-1.24c-.72-.31-1.37-.74-2.07-1.07s-1.33-.51-2-.91-1.56-.68-2.3-1.07a19.59,19.59,0,0,0-2.56-.83,21.34,21.34,0,0,0-2.5-.65c-.86-.21-1.73-.24-2.58-.45a5.52,5.52,0,0,1-1.87-.58c-.17-.12,0-.39.16-.28a2.84,2.84,0,0,0,1.12.27,8.91,8.91,0,0,0,1.56.25,24.78,24.78,0,0,1,2.55.35c.9.13,1.7.49,2.59.66a9.46,9.46,0,0,1,2.29.86c1.41.68,2.9,1.19,4.26,2s2.68,1.21,3.57,2.38c.18.25-.24.57-.43.33"/><path class="d" d="M349.77,299.47a70.23,70.23,0,0,0-9.38-12.66,41.38,41.38,0,0,0-6-5.21,15.89,15.89,0,0,0-7.29-3.42,6,6,0,0,0-6.27,3.24c-1.15,2.68,1.29,5.62,3.35,7.08a60.25,60.25,0,0,0,13.58,7.72c1.12.41,2.19.94,3.28,1.4a29.07,29.07,0,0,0,2.93.72,13.88,13.88,0,0,1,6.31,3.39.17.17,0,0,1-.2.26,29.56,29.56,0,0,0-7.4-2.73,13.55,13.55,0,0,1-3-1.05c-1.42-.61-2.89-1.11-4.31-1.72a50.94,50.94,0,0,1-7.91-4.4c-2.07-1.37-4.54-2.72-6.1-4.7-1.38-1.75-2.48-4.11-1.55-6.31a6.71,6.71,0,0,1,4.55-3.71c5.11-1.18,9.81,2.93,13.48,5.85,2.69,2.14,4.69,5,6.8,7.64a50.9,50.9,0,0,1,5.5,8.36c.14.28-.27.52-.42.25"/><path class="d" d="M351.23,302.15c-1.65-1.59-3-3.41-4.56-5.07a28.68,28.68,0,0,0-2.24-2.17c-.86-.71-1.53-1.56-2.32-2.34-1.72-1.68-3.53-3.29-5.33-4.89-.88-.78-1.79-1.51-2.66-2.3-.38-.34-.77-.65-1.16-1s-.8-1-1.2-1.09c-.23-.05-.12-.37.1-.34.66.09,1.21.89,1.71,1.29.94.75,1.83,1.59,2.75,2.38,1.91,1.65,3.75,3.39,5.59,5.11.82.77,1.5,1.66,2.33,2.41s1.72,1.52,2.52,2.37c1.64,1.74,3,3.69,4.68,5.4.13.13-.08.34-.21.21"/><path class="d" d="M350.08,301.42a87.52,87.52,0,0,1-9.34-7.27c-.68-.62-1.41-1.14-2.14-1.7s-1.17-1.19-1.85-1.69a41.44,41.44,0,0,1-3.9-2.68c-.15-.14.07-.35.23-.23,1.33,1,2.93,1.64,4.27,2.65.63.48,1.14,1.09,1.8,1.53a14.6,14.6,0,0,1,2,1.54c2.91,2.73,6,5.14,9.19,7.58.15.12-.05.39-.22.27"/><path class="d" d="M347.26,272.86a20.18,20.18,0,0,1-1.29-2.93c-.46-1.09-1.07-2.09-1.51-3.17a40.26,40.26,0,0,0-3.4-6.63A46,46,0,0,0,337,254a16.2,16.2,0,0,0-6.08-4.3c-2.42-.94-5.18-1.79-7.34.08a4.36,4.36,0,0,0-1,1,3.38,3.38,0,0,0,.11,2.91,10.24,10.24,0,0,0,2.3,2.79c1.85,1.68,3.84,3.17,5.71,4.81s3.46,3.06,5.32,4.46c2.21,1.65,4.87,2.57,7.24,4,.53.31,1,.68,1.57,1s1,.33,1.44.59c.85.49,1.89,1.84,2.83,2.07.14,0,.15.26,0,.28a2.77,2.77,0,0,1-2-.6,9.82,9.82,0,0,0-1.84-1.16,7.71,7.71,0,0,1-1.41-.7c-2.43-1.57-5.19-2.55-7.64-4.12a46.66,46.66,0,0,1-6-4.93c-2.1-1.9-4.51-3.46-6.46-5.54-1.49-1.59-3.06-3.64-2.12-6a5.85,5.85,0,0,1,1.94-2.05,5.11,5.11,0,0,1,2.86-.82,9.38,9.38,0,0,1,3.87.76,14.31,14.31,0,0,1,3.56,1.67,22,22,0,0,1,5.35,5.25c.92,1.3,1.64,2.71,2.48,4s1.51,2.84,2.28,4.3,1.29,2.68,2,4c.76,1.52,1,3.29,1.81,4.79a.24.24,0,0,1-.42.24"/><path class="d" d="M349.05,273.86a12.18,12.18,0,0,0-1.11-.77,13.26,13.26,0,0,1-1.13-1.12,23.69,23.69,0,0,1-2.08-2.17c-.29-.37-.51-.79-.8-1.17s-.73-.73-1.1-1.11a20.86,20.86,0,0,1-2-2.59,50,50,0,0,0-4.43-5.52c-.87-.9-1.76-1.78-2.62-2.69s-1.66-1.48-2.34-2.33c-.14-.18.05-.51.27-.34a42.09,42.09,0,0,1,9.36,9.71,32,32,0,0,0,2.2,3.09,13.77,13.77,0,0,1,1.68,2,16.25,16.25,0,0,0,2.21,2.55c.37.39.68.83,1.05,1.21s.8.59,1.13,1a.22.22,0,0,1-.31.31"/><path class="d" d="M345.73,271.58c-1.09-1.17-2.13-2.44-3.31-3.53-.5-.47-1.1-.83-1.62-1.29s-1-1.1-1.59-1.62c-1.1-1-2.32-1.92-3.46-2.91a39.86,39.86,0,0,0-3.44-3.05c-.15-.11,0-.35.15-.26a22.25,22.25,0,0,1,3.32,2.64c1.19,1.05,2.5,1.93,3.68,3,.56.51,1.07,1.07,1.63,1.59s1.1.85,1.62,1.32a48.17,48.17,0,0,1,3.4,3.74c.23.26-.14.64-.38.38"/><path class="d" d="M346.13,250.09c-2.3-3.41-3.58-7.31-5.51-10.93a37.41,37.41,0,0,0-7.85-9.64c-1.45-1.36-4.28-4.25-5.8-1.5a8.06,8.06,0,0,0-.18,6.37,17.7,17.7,0,0,0,3.25,5.85,51,51,0,0,0,4.48,4.08c.83.72,1.64,1.48,2.49,2.2a13,13,0,0,0,3.35,2c.73.33,1.37.85,2.09,1.22A11.05,11.05,0,0,0,346,251c.16,0,.1.25,0,.26a4.85,4.85,0,0,1-2.59-.26c-1-.48-1.94-1.1-2.9-1.66s-2-.82-2.9-1.47a34.53,34.53,0,0,1-2.7-2.3,57.17,57.17,0,0,1-5.46-5,18.35,18.35,0,0,1-3.24-5.83,9.4,9.4,0,0,1-.24-6.19c.5-1.45,1.4-2.76,3.08-2.52,2,.29,3.65,2.23,5,3.5a32.9,32.9,0,0,1,4.86,5.28c3.32,4.63,4.74,10.17,7.6,15,.14.23-.2.42-.35.2"/><path class="d" d="M347.79,250.68c-.68-.48-1.46-.78-2.13-1.29s-1.27-1-1.85-1.49a50.88,50.88,0,0,1-3.61-3.73,35.45,35.45,0,0,1-3.16-3.86A28,28,0,0,1,334.2,236c-.07-.16.15-.29.24-.14.84,1.37,1.94,2.56,2.89,3.85a39.38,39.38,0,0,0,3.45,4.08c1.14,1.18,2.17,2.47,3.36,3.6s2.64,2,3.8,3.1c.1.1,0,.28-.15.2"/><path class="d" d="M344.12,249.52a13.21,13.21,0,0,1-2.18-1.43c-.33-.29-.6-.64-.94-.92s-.74-.48-1.08-.76c-.66-.54-1.2-1.22-1.8-1.82s-1.44-1.47-2.14-2.22a.12.12,0,0,1,.17-.18c.71.67,1.42,1.35,2.11,2s1.18,1.28,1.84,1.82c.35.28.75.48,1.11.75a7.94,7.94,0,0,1,.8.84,10.2,10.2,0,0,0,2.23,1.68.12.12,0,0,1-.12.21"/><path class="d" d="M344.64,224.74a8.91,8.91,0,0,0-1.21-2.43,12.61,12.61,0,0,1-.8-2c-.49-1.55-1-3.08-1.51-4.63a20.15,20.15,0,0,0-1.84-4.57,10.15,10.15,0,0,0-3.41-3.1,18.35,18.35,0,0,0-2-1.24c-.62-.3-1.85-1.09-2.55-.7s-.46,1.75-.37,2.25a18.8,18.8,0,0,0,.72,2.43c1,3.09,3.38,5.45,5.42,7.91a27.43,27.43,0,0,0,3.51,3.64,9.45,9.45,0,0,0,1.92,1.56,4,4,0,0,1,1.63.92.19.19,0,0,1-.23.3c-.64-.37-1.42-.36-2.07-.75a16.65,16.65,0,0,1-1.76-1.52,34.78,34.78,0,0,1-3.72-3.86,51.09,51.09,0,0,1-3.42-4.21,17,17,0,0,1-2.37-4.9c-.37-1.16-.9-3-.09-4.08s2.43-.31,3.33.12c3.08,1.47,6.09,3.55,7.25,6.89.71,2.07,1.44,4.16,2,6.26a18.75,18.75,0,0,0,1.13,3.23,7.88,7.88,0,0,1,1.06,2.46c0,.4-.58.39-.63,0"/><path class="d" d="M345.77,225.66a8.34,8.34,0,0,1-1.09-1.21,10.48,10.48,0,0,0-1.23-1.6,19.76,19.76,0,0,1-2.22-2.78,30.86,30.86,0,0,1-1.82-3,8.8,8.8,0,0,1-1.16-3.12.13.13,0,0,1,.26,0,14.09,14.09,0,0,0,1.46,3,30.18,30.18,0,0,0,1.84,2.9,33.71,33.71,0,0,0,2.18,2.75,13.11,13.11,0,0,1,.95,1.27,4.5,4.5,0,0,0,.53.83c.2.23.42.43.6.67s-.12.52-.3.3"/><path class="d" d="M343.48,224.56a11,11,0,0,1-3.57-4.39c-.1-.24.27-.36.4-.17a24.82,24.82,0,0,0,1.57,2.23,12.91,12.91,0,0,0,1.89,2c.22.17-.07.55-.29.38"/><path class="d" d="M344.92,197.3a25.73,25.73,0,0,1-1.44-3.52c-.55-1.34-.89-2.72-1.4-4.07-.9-2.4-2.1-5.42-4.24-7-1.13-.84-3.14-1.74-4.22-.39a6.06,6.06,0,0,0-.83,4,7.39,7.39,0,0,0,2.19,3.83q1.53,1.76,3,3.58c.52.65,1,1.35,1.59,1.95a9.36,9.36,0,0,0,2.07,1.52c.29.17.52.39.8.57a3,3,0,0,0,1.37.43c.77.09,1.55.16,2.32.26a.08.08,0,0,1,0,.16c-1.37.22-3,.57-4.21-.3-.66-.47-1.42-.78-2.09-1.26a9,9,0,0,1-1.76-1.84q-1.74-2.22-3.58-4.35a9.18,9.18,0,0,1-2.44-3.89c-.47-2.24.24-6.52,3.35-6.16,2.85.33,4.73,2.84,5.9,5.21a28.67,28.67,0,0,1,2.16,5.41c.27,1,.64,1.92.93,2.9a15.2,15.2,0,0,0,1,2.72.26.26,0,0,1-.45.26"/><path class="d" d="M346.3,198.58c-.1-.58-.78-1-1.23-1.26a6.68,6.68,0,0,1-1.31-1,29.22,29.22,0,0,1-2.4-3.11,26.26,26.26,0,0,1-1.79-3.4,15.48,15.48,0,0,0-2.22-3.37.09.09,0,1,1,.13-.13,13.27,13.27,0,0,1,2.38,3.09,32.14,32.14,0,0,0,2,3.54c.41.55.85,1.07,1.26,1.62a10.34,10.34,0,0,0,1.4,1.75c.68.6,2.06,1.15,2.22,2.16,0,.25-.35.37-.4.11"/><path class="d" d="M345,199.22a17.44,17.44,0,0,0-1.92-1.4,12,12,0,0,1-1.68-1.58,12.22,12.22,0,0,1-1.37-1.9c-.48-.76-1-1.49-1.43-2.28a.17.17,0,1,1,.3-.18c.49.7,1,1.39,1.49,2.1.22.34.42.71.66,1a9,9,0,0,0,.81.93,15.49,15.49,0,0,0,1.63,1.61,15.1,15.1,0,0,1,1.76,1.41.18.18,0,0,1-.25.25"/><path class="d" d="M347.92,178.12a3.29,3.29,0,0,1-.26-1.07c0-.46,0-.93-.08-1.38a7.93,7.93,0,0,0-.69-2.53,3.58,3.58,0,0,1-.35-.89,3.88,3.88,0,0,0-.32-1.2c-.38-.7-.7-1.43-1.08-2.13a3.41,3.41,0,0,0-1.57-1.63,1.37,1.37,0,0,0-1.9,1,4.68,4.68,0,0,0,1,4.58c.26.29.55.55.78.86s.45.7.74,1c.59.62,1.29,1.09,1.83,1.77.06.08,0,.19-.12.11-.62-.66-1.39-1.15-2-1.82-.29-.33-.47-.71-.75-1s-.59-.6-.85-.93a5.18,5.18,0,0,1-.88-4.71,1.83,1.83,0,0,1,1.23-1.35,2.34,2.34,0,0,1,1.93.51,5.61,5.61,0,0,1,1.52,2c.21.41.41.82.65,1.22a3.33,3.33,0,0,1,.55,1.23,5.51,5.51,0,0,0,.56,1.53,6.21,6.21,0,0,1,.47,1.63,11.73,11.73,0,0,1,.13,1.57,7.22,7.22,0,0,1,0,.93,5.19,5.19,0,0,1-.25.79.14.14,0,0,1-.26,0"/><path class="d" d="M347.53,177.2c-.3-.46-.64-.89-.92-1.36s-.42-1-.67-1.53-.51-.89-.73-1.35a4.46,4.46,0,0,1-.38-1.43c0-.13.22-.16.24,0a13,13,0,0,0,1.24,2.77,15.33,15.33,0,0,0,.61,1.45c.27.45.59.88.87,1.33.1.16-.15.31-.26.15"/></svg>