<svg xmlns="http://www.w3.org/2000/svg" viewBox="0 0 750 499" style="color-scheme: dark;"><defs><style>.a{fill:#14213d;}.b{fill:#c8c8c8;}</style></defs><rect class="a" y="-13" width="750" height="512"/><path class="b" d="M239.28,449v-44l-9.23,7.07-2.35-3.78,11.86-8.89H244V449Z"/><path class="b" d="M280.41,437.2V449h-4.47V437.2H257.89v-4.55l16-33.18h6.53V433h6.25v4.2Zm-4.4-33h-.14L262.37,433H276Z"/><path class="b" d="M371.84,424.25a77.57,77.57,0,0,1-.53,8.89,32,32,0,0,1-2,8.26,16.25,16.25,0,0,1-4.12,6.09,11,11,0,0,1-13.64,0,16.37,16.37,0,0,1-4.12-6.09,33.31,33.31,0,0,1-2.06-8.26,69.61,69.61,0,0,1,0-17.78,33.31,33.31,0,0,1,2.06-8.26,16.37,16.37,0,0,1,4.12-6.09,11,11,0,0,1,13.64,0,16.25,16.25,0,0,1,4.12,6.09,32,32,0,0,1,2,8.26A77.57,77.57,0,0,1,371.84,424.25Zm-5,0c0-1.17,0-2.52-.11-4s-.2-3.08-.39-4.67a39.64,39.64,0,0,0-.85-4.67,18.52,18.52,0,0,0-1.5-4.07,8.45,8.45,0,0,0-2.3-2.88,5.56,5.56,0,0,0-6.61,0,8.35,8.35,0,0,0-2.31,2.88,19.6,19.6,0,0,0-1.53,4.07,34.38,34.38,0,0,0-.89,4.67c-.19,1.59-.32,3.15-.39,4.67s-.1,2.87-.1,4,0,2.58.1,4.11.2,3.06.39,4.63a34.54,34.54,0,0,0,.89,4.64,19.6,19.6,0,0,0,1.53,4.07,8.55,8.55,0,0,0,2.31,2.88,5.56,5.56,0,0,0,6.61,0,8.64,8.64,0,0,0,2.3-2.88,18.52,18.52,0,0,0,1.5-4.07,39.9,39.9,0,0,0,.85-4.64c.19-1.57.32-3.11.39-4.63S366.8,425.47,366.8,424.25Z"/><path class="b" d="M387.32,449h-5.25l16.48-45.22H378.87v-4.34h24.65v4.13Z"/><path class="b" d="M488.91,411.58a17.62,17.62,0,0,1-.53,4.37,21.08,21.08,0,0,1-1.53,4.06,36.19,36.19,0,0,1-2.38,4.06q-1.38,2.07-3,4.45L470,444.69h18.4V449h-23.8v-4.62l13.72-19.25a45.72,45.72,0,0,0,4-6.83,14.87,14.87,0,0,0,1.5-6.4,14,14,0,0,0-.43-3.47,8.82,8.82,0,0,0-1.31-2.9,6.7,6.7,0,0,0-2.21-2,6.19,6.19,0,0,0-3.09-.73,6.69,6.69,0,0,0-5,2,10.87,10.87,0,0,0-2.67,5.78l-4.69-.56q1-5.6,4.26-8.51a12.2,12.2,0,0,1,8.39-2.9,12.34,12.34,0,0,1,5.18,1,10.12,10.12,0,0,1,3.66,2.8,12.32,12.32,0,0,1,2.2,4.13A16.41,16.41,0,0,1,488.91,411.58Z"/><path class="b" d="M522.3,411.58a17.62,17.62,0,0,1-.53,4.37,21.08,21.08,0,0,1-1.53,4.06,37.79,37.79,0,0,1-2.38,4.06q-1.38,2.07-3,4.45L503.4,444.69h18.4V449H498v-4.62l13.71-19.25a45,45,0,0,0,4.05-6.83,14.85,14.85,0,0,0,1.49-6.4,14,14,0,0,0-.42-3.47,8.84,8.84,0,0,0-1.32-2.9,6.57,6.57,0,0,0-2.2-2,6.22,6.22,0,0,0-3.09-.73,6.71,6.71,0,0,0-5,2,10.94,10.94,0,0,0-2.66,5.78l-4.69-.56q1-5.6,4.26-8.51a12.2,12.2,0,0,1,8.39-2.9,12.4,12.4,0,0,1,5.18,1,10.12,10.12,0,0,1,3.66,2.8,12.32,12.32,0,0,1,2.2,4.13A16.41,16.41,0,0,1,522.3,411.58Z"/><path class="b" d="M234.9,258.05q-7.91,11.54-25.41,11.53-12.87,0-20.67-6.85t-10.75-18.29l13.07-5.19a25.85,25.85,0,0,0,6,11.94q4.53,5.1,12.13,5.09,11,0,14.86-8.72t3.9-23.9V119H242.8V225.74Q242.8,246.52,234.9,258.05Z"/><path class="b" d="M571.86,227.72q0,11.43-3.69,19.11a35.44,35.44,0,0,1-9.38,12.36,34.63,34.63,0,0,1-12.54,6.65,47.49,47.49,0,0,1-13.18,2H494.9V120.71h33.84a55.28,55.28,0,0,1,13.11,1.66,35.48,35.48,0,0,1,12.37,5.72,30.59,30.59,0,0,1,9.2,11q3.6,7,3.59,17.56a41.59,41.59,0,0,1-1.81,13,33.45,33.45,0,0,1-4.79,9.56,28,28,0,0,1-6.81,6.65,35.71,35.71,0,0,1-7.88,4.05v.42a32.29,32.29,0,0,1,8.64,3.32,30.58,30.58,0,0,1,8.54,7,36.08,36.08,0,0,1,6.43,11.22A45.19,45.19,0,0,1,571.86,227.72ZM553.1,158.84a29.87,29.87,0,0,0-2.22-12.21,21,21,0,0,0-5.9-8,22.19,22.19,0,0,0-8.33-4.25,36.46,36.46,0,0,0-9.49-1.24H508.82v51.94h18.76a29.94,29.94,0,0,0,9.18-1.45,22,22,0,0,0,8.11-4.65,25,25,0,0,0,5.91-8.18A28.29,28.29,0,0,0,553.1,158.84Zm4.21,67.94a34.53,34.53,0,0,0-2.52-14,26.31,26.31,0,0,0-6.54-9.21,26,26,0,0,0-9-5.18,30.38,30.38,0,0,0-9.6-1.65H508.82v58.59h20.87a34.24,34.24,0,0,0,10.76-1.66,23.58,23.58,0,0,0,8.85-5.17,23.82,23.82,0,0,0,5.91-8.91A35.23,35.23,0,0,0,557.31,226.78Z"/><path class="b" d="M413.21,139.83c1.73,5.92,1.13,12,1.48,18.11s.54,12,.3,18c-.46,11.79-2.86,23.48-5.08,35-.49,2.55-1.06,5.05-1.77,7.55s-1.15,5.31-2,7.91-1.61,5.23-2.44,7.85-1.29,5.42-2.26,8c-1.74,4.67-2.56,10.23-5.19,14.46a68.36,68.36,0,0,0-3.5,7.2c-1.24,2.71-2.24,5.53-3.48,8.24s-2.95,5.44-4.37,8.17a50.15,50.15,0,0,1-4.76,7,56.94,56.94,0,0,1-6.53,7.43,53.56,53.56,0,0,0-5.8,6.95c-.36.48.42,1.07.83.64,2.06-2.14,3.9-4.45,6.07-6.5a48,48,0,0,0,5.54-6c1.54-2.06,3.31-4,4.65-6.2,1.49-2.42,2.71-5,4.09-7.52,2.77-5,4.72-10.39,7.15-15.52a52.49,52.49,0,0,0,2.75-5.77c.9-2.72,1.73-5.46,2.58-8.2,3.31-10.62,6.89-21.31,9.17-32.22A291.54,291.54,0,0,0,416,180.1a124.18,124.18,0,0,0-.19-20.59c-.54-6.59-.09-13.42-2.18-19.78a.19.19,0,0,0-.37.1"/><path class="b" d="M372.43,296c.08-.11.12.14.11,0s-.11-.1-.14-.13-.24-.2-.34-.3-.34-.43-.55-.69c-.7-.88-1.5-1.68-2.2-2.57a10.92,10.92,0,0,1-1.53-3,7.13,7.13,0,0,1-.46-1.7,16.65,16.65,0,0,1,0-1.73c0-1.13-.13-2.09.68-3a2.49,2.49,0,0,1,1.2-.77,1.64,1.64,0,0,1,1.48.4,6.67,6.67,0,0,1,1.2,1,5.82,5.82,0,0,1,.74,1.55,23.13,23.13,0,0,1,1.17,3,7.31,7.31,0,0,1,.07,1.75c0,.65,0,1.29,0,1.94,0,1.29-.58,2.55-.5,3.83a.14.14,0,0,0,.28,0c.28-.7.67-1.35,1-2a7.14,7.14,0,0,0,.4-2.24,12.45,12.45,0,0,0-.26-4.18,13.68,13.68,0,0,0-.73-1.83c-.31-.64-.49-1.35-.82-2a4.31,4.31,0,0,0-1.29-1.43,5.1,5.1,0,0,0-1.6-1,3.25,3.25,0,0,0-3.17,1.1,4.24,4.24,0,0,0-.83,1.3,5.4,5.4,0,0,0-.18,2.19c0,.69-.08,1.39,0,2.08a7.79,7.79,0,0,0,.56,2.13,12.62,12.62,0,0,0,2.05,3.67c.53.64,1.11,1.22,1.67,1.83a14.45,14.45,0,0,0,1.05,1.16,1.09,1.09,0,0,0,1,.37.54.54,0,0,0,.39-.7c0-.23-.34-.2-.45-.06"/><path class="b" d="M373.19,295a22.87,22.87,0,0,0-.87-5.44,14.65,14.65,0,0,0-.88-2.31c-.16-.35-.28-.71-.45-1a6.76,6.76,0,0,1-.6-1.31c0-.15-.27-.12-.28,0a2.55,2.55,0,0,0,.3,1,11.9,11.9,0,0,1,.44,1.18c.28.78.7,1.49.95,2.3a21.92,21.92,0,0,1,1,5.56.18.18,0,0,0,.36,0"/><path class="b" d="M381.91,285.78a24.72,24.72,0,0,1-2.76-3.76,10,10,0,0,1-.95-2c-.2-.65-.34-1.32-.53-2a15.54,15.54,0,0,1-.92-4.57c0-1.2-.12-2.77.93-3.61,1.34-1.08,2.92.42,3.55,1.6a15.63,15.63,0,0,1,1.26,4.14,11.56,11.56,0,0,1-.2,4.79,18.74,18.74,0,0,1-.45,2,2.64,2.64,0,0,0-.18,1.54c0,.17.27.14.32,0,.22-.56.7-.95.87-1.54s.25-1.37.38-2a12.15,12.15,0,0,0,.19-4,22.13,22.13,0,0,0-1.07-4.37,5.62,5.62,0,0,0-1.83-2.62,2.7,2.7,0,0,0-4.4,1.33,9.87,9.87,0,0,0-.26,3.75,18.2,18.2,0,0,0,1,4.17,17.43,17.43,0,0,0,1.6,4,26.06,26.06,0,0,0,2.86,3.74c.33.38.87-.16.55-.54"/><path class="b" d="M381.66,285.13a18.85,18.85,0,0,0,.09-2.49,10.27,10.27,0,0,0-.18-1.11c-.09-.45-.08-.91-.18-1.36-.18-.78-.46-1.55-.67-2.33s-.39-1.67-.61-2.49a.32.32,0,0,0-.63.08,7.34,7.34,0,0,0,.37,2.37c.22.79.48,1.56.71,2.34a8.29,8.29,0,0,1,.19,1.23c.06.41.19.8.28,1.2a16.9,16.9,0,0,1,.22,2.56.21.21,0,0,0,.41,0"/><path class="b" d="M389.91,272.57c-.85-1.23-1.81-2.39-2.64-3.64-.41-.62-.74-1.28-1.15-1.89a12.5,12.5,0,0,1-1-1.6,15,15,0,0,1-.76-2.38,10.24,10.24,0,0,1-.42-2.39c0-1.36.46-3.13,1.82-3.75,2.37-1.08,3.64,4.53,3.76,6s0,2.94,0,4.4a11.78,11.78,0,0,1-.21,2.44,6.06,6.06,0,0,0-.15.95c0,.39.25.75.14,1.16l.34-.05a6.23,6.23,0,0,1-.37-1.38c-.15-.53-.2-1.1-.32-1.64-.25-1.13-.6-2.19-.94-3.3a27.6,27.6,0,0,0-2.65-5.57.29.29,0,0,0-.52.22,17,17,0,0,0,1.25,2.74,19,19,0,0,1,1.22,3.08c.34,1.06.79,2.07,1.11,3.14.17.57.28,1.15.49,1.7a5.31,5.31,0,0,0,.41,1.2c.08.13.31.13.34,0a20.25,20.25,0,0,0,.73-3.77c0-1.43-.07-2.87-.1-4.29a13.17,13.17,0,0,0-.66-3.79,8.9,8.9,0,0,0-1.24-2.84,2.8,2.8,0,0,0-2.35-1.32,3.31,3.31,0,0,0-2.26,1.63c-1.51,2.32-.6,5.31.31,7.67a18.38,18.38,0,0,0,2.34,3.69c.94,1.35,2.07,2.56,3.07,3.87.18.23.58,0,.4-.23"/><path class="b" d="M372.72,295.46c.6-.11,1.16-.38,1.78-.5s1.41-.29,2.13-.35a23.28,23.28,0,0,1,4.09,0c2.31.2,5.11,1.54,5.81,3.95.19.67.2,1.3-.55,1.56a5.56,5.56,0,0,1-1.68.19,10.59,10.59,0,0,1-3.87-.55,31.14,31.14,0,0,1-3.81-1.85c-.6-.32-1.22-.56-1.83-.85a7.74,7.74,0,0,0-1.51-.72.31.31,0,0,0-.24.56c1,.65,2.11,1.14,3.14,1.75a33.48,33.48,0,0,0,3.37,1.86,9.36,9.36,0,0,0,3.6.89,9,9,0,0,0,3.22-.27c2.19-.76,1.28-3.34.19-4.68a8.1,8.1,0,0,0-5.84-2.84,23.8,23.8,0,0,0-4.22.07,10.33,10.33,0,0,0-2,.46c-.68.21-1.3.57-2,.77a.27.27,0,0,0,.15.52"/><path class="b" d="M372.28,296.25c1,.05,2,.11,3,.19a13,13,0,0,1,2.93.34c.86.27,1.71.58,2.56.85a6.24,6.24,0,0,0,1.12.25,2.66,2.66,0,0,1,1.15.27.24.24,0,0,0,.28-.37,5.31,5.31,0,0,0-2.06-.82c-.92-.33-1.79-.7-2.73-1a8.38,8.38,0,0,0-2.82-.22c-1.13.07-2.26.16-3.38.22a.13.13,0,0,0,0,.26"/><path class="b" d="M382.56,287.44c.25-.51.41-.93,1-1.17s1.09-.31,1.61-.49c1.17-.4,2.34-.68,3.52-1a10.08,10.08,0,0,1,3.45-.48,7.9,7.9,0,0,1,3.24,1.34,4.49,4.49,0,0,1,1.8,2.1,1.5,1.5,0,0,1-.05,1.31c-.28.39-.91.49-1.34.59a10.12,10.12,0,0,1-3.25.23A27.2,27.2,0,0,1,389,289a21.91,21.91,0,0,1-3.65-1.77,8.91,8.91,0,0,0-1.63-.61,3.87,3.87,0,0,0-1.76.11.24.24,0,0,0,0,.45c.65.19,1.3.49,1.95.71a15.36,15.36,0,0,1,2.18,1c.62.33,1.22.69,1.85,1a17.42,17.42,0,0,0,2,.57,13,13,0,0,0,4.21.56,7.29,7.29,0,0,0,3.24-.81c2-1.23.43-3.9-.87-5a10.56,10.56,0,0,0-3.33-1.68,7,7,0,0,0-3.86.11,27.87,27.87,0,0,0-4.47,1.48,9.29,9.29,0,0,0-2,.89,2.68,2.68,0,0,0-.73,1.26c-.09.23.29.39.4.17"/><path class="b" d="M382,286.92a1.22,1.22,0,0,1,1.09-.24l1.17.06c.81,0,1.6-.14,2.4-.16s1.6.06,2.4.08,1.69,0,2.53,0a.24.24,0,0,0,.06-.46,14.43,14.43,0,0,0-2.77-.38,26,26,0,0,0-2.65,0c-.91.09-1.8.29-2.72.32-.66,0-1.33-.05-1.79.52-.15.2.09.46.28.28"/><path class="b" d="M391.05,271.91a11.47,11.47,0,0,1,.59-1.16,5.32,5.32,0,0,1,1.17-1.15,22.78,22.78,0,0,1,2.38-1.9c1.63-1.06,3.4-2.12,5.42-2a3.19,3.19,0,0,1,2.52,1.14,2.23,2.23,0,0,1-.24,2.49,8,8,0,0,1-1.83,1.38,5.52,5.52,0,0,1-2.9,1,29.31,29.31,0,0,1-3.1.12c-.57,0-1.11-.2-1.68-.22a6,6,0,0,0-1.68.24.13.13,0,0,0,0,.25,11.92,11.92,0,0,0,1.68.24c.64.07,1.24.27,1.88.3a18,18,0,0,0,3.44-.15,6.87,6.87,0,0,0,3-1.33,6.37,6.37,0,0,0,1.93-1.76,3,3,0,0,0,.23-2.41,3.1,3.1,0,0,0-1.9-1.69A5.77,5.77,0,0,0,399,265a9,9,0,0,0-3.1,1.3,18.15,18.15,0,0,0-3.3,2.39,10,10,0,0,0-1.28,1.33,7.45,7.45,0,0,0-.77,1.7c-.11.28.36.47.5.21"/><path class="b" d="M390.59,271.91a4.86,4.86,0,0,1,1.51-.92c.57-.3,1.09-.7,1.69-.95a11.57,11.57,0,0,1,1.84-.48,10,10,0,0,0,1.84-.56c.19-.08.12-.38-.09-.32a25.45,25.45,0,0,0-4,.88,15.18,15.18,0,0,0-1.68,1,4.83,4.83,0,0,0-1.46,1.07c-.13.18.16.4.31.24"/><path class="b" d="M396.1,257c-.7-.83-1.22-1.8-1.91-2.64a21.72,21.72,0,0,1-2.09-2.63,16.86,16.86,0,0,0-2-2.53,7.69,7.69,0,0,1-1.41-2.83,1.8,1.8,0,0,1,0-1.6,5.8,5.8,0,0,1,.86-1.29,2.92,2.92,0,0,1,2.94-.23,6.29,6.29,0,0,1,2.19,2.69,18.49,18.49,0,0,1,1,3.19,6.43,6.43,0,0,1,.28,1.15c0,.29,0,.59,0,.89a12.17,12.17,0,0,1,.28,1.62,18.94,18.94,0,0,0-.07,3.28.1.1,0,0,0,.2,0,24.41,24.41,0,0,0,.78-3.51c0-.61-.21-1.13-.23-1.73a7.28,7.28,0,0,0-.3-2,15.34,15.34,0,0,0-1.24-3.64,7.32,7.32,0,0,0-2.41-2.82,4,4,0,0,0-3.06-.18c-1.1.35-1.56,1.2-2.12,2.14s-.16,2.12.23,3.08a10.86,10.86,0,0,0,.72,1.5,10.23,10.23,0,0,0,1.28,1.51,12.39,12.39,0,0,1,1.45,1.86,9.58,9.58,0,0,0,1.29,1.48c1.05,1.11,1.89,2.44,3,3.49.19.19.46-.09.29-.29"/><path class="b" d="M396.26,257.16a4.36,4.36,0,0,0,0-2.43,15.8,15.8,0,0,0-.66-2.54,12.77,12.77,0,0,1-.6-2,3.31,3.31,0,0,0-.76-1.64c-.18-.17-.51.06-.35.26a3.71,3.71,0,0,1,.48,1.67,10.35,10.35,0,0,0,.61,2,15.44,15.44,0,0,1,.6,2.34,6.44,6.44,0,0,1,.23,1.16,4.54,4.54,0,0,0,.16,1.22.13.13,0,0,0,.25,0"/><path class="b" d="M396.72,257.25a2.94,2.94,0,0,1,1.33-1,14.16,14.16,0,0,0,1.51-.88c.94-.61,1.66-1.53,2.61-2.09a15.85,15.85,0,0,1,2.92-1.51,15.38,15.38,0,0,1,1.49-.51,10.31,10.31,0,0,1,1.84-.15c1,0,2.27-.15,2.47,1.15a4.24,4.24,0,0,1-2.94,5.1,6.13,6.13,0,0,1-1.66.51c-.58,0-1.17,0-1.75,0a10.26,10.26,0,0,1-2.28-.11c-.67-.12-1.33-.28-2-.37s-1.29,0-1.93-.1a5.43,5.43,0,0,0-.81-.1,2.19,2.19,0,0,1-1.08,0v.2c.9-.4,1.86-.65,2.77-1a16.53,16.53,0,0,1,3-1.12c.92-.2,1.86-.21,2.78-.41s2.12-.3,3.16-.46c.16,0,.12-.28,0-.28a28.18,28.18,0,0,0-6.36.44,13,13,0,0,0-2.74,1.17,11.9,11.9,0,0,0-2.67,1.52.12.12,0,0,0,0,.17,4.46,4.46,0,0,0,3.05,1.08c1.62.1,3.15.61,4.78.55.68,0,1.36,0,2,0a6.26,6.26,0,0,0,2-.55,6.12,6.12,0,0,0,2.89-2.08,5,5,0,0,0,.83-3.42c-.11-1-.22-2-1.21-2.45a6.89,6.89,0,0,0-3.61-.15,7.73,7.73,0,0,0-1.77.48,9.36,9.36,0,0,0-1.92.83c-.65.46-1.4.79-2,1.27s-1,1-1.52,1.39a18.24,18.24,0,0,1-2.2,1.51,3.27,3.27,0,0,0-1.36,1.19.25.25,0,0,0,.43.25"/><path class="b" d="M402.09,241.75c-.1-.71-.87-1-1.26-1.54a3.72,3.72,0,0,0-.86-.82,7.37,7.37,0,0,1-1-1c-.78-.86-1.72-1.54-2.53-2.37a10.6,10.6,0,0,1-1.8-2.41,3.27,3.27,0,0,1-.45-1.35,1.79,1.79,0,0,1,.74-1.35,3.84,3.84,0,0,1,2.63-1.31,3.62,3.62,0,0,1,2.61,1.09,5.86,5.86,0,0,1,1.39,2.86,8.43,8.43,0,0,1,.43,2.1c0,.64,0,1.29,0,1.93a3.48,3.48,0,0,1,0,.91,3.13,3.13,0,0,0-.12.68c0,.51,0,1,.07,1.55,0,.07.14.07.15,0,.19-1.1.81-2,.76-3.14,0-.68,0-1.37,0-2.06a8.42,8.42,0,0,0-.39-1.91,8.11,8.11,0,0,0-1.33-3.14,4.65,4.65,0,0,0-2.49-1.63,4.15,4.15,0,0,0-2.94.29,8.9,8.9,0,0,0-1.29,1,3.56,3.56,0,0,0-1,1.27c-.77,1.89,1.33,4.18,2.58,5.36.53.49,1.11.94,1.65,1.42s.93,1,1.43,1.42a14.29,14.29,0,0,1,1.38,1.2c.29.34,1.07.63,1.16,1.07.06.27.55.22.51-.07"/><path class="b" d="M402.18,241.38a8.75,8.75,0,0,0-.74-2.08c-.26-.87-.49-1.75-.78-2.61a7.09,7.09,0,0,0-.44-1.16,11.37,11.37,0,0,1-.55-1,5.2,5.2,0,0,0-1.19-1.86.19.19,0,0,0-.28.27,7.86,7.86,0,0,1,1,2c.15.34.36.65.54,1a9.59,9.59,0,0,1,.45,1.16c.3.75.55,1.5.81,2.27a12.12,12.12,0,0,1,.89,2.11c0,.21.34.22.33,0"/><path class="b" d="M402.9,241.84a9.17,9.17,0,0,1,3.56-3.77c.36-.23.74-.45,1.11-.66a7.4,7.4,0,0,1,1.52-.53,5.07,5.07,0,0,1,3.05-.28c1.31.4,4,2.26,2.91,3.86a3.82,3.82,0,0,1-2.45,1.26,16.58,16.58,0,0,1-3,.47,12.07,12.07,0,0,1-3.43-.51,15.13,15.13,0,0,1-1.53-.48,1.69,1.69,0,0,0-1.28-.12.31.31,0,0,0,0,.6c.48.15.91.4,1.38.58s1.26.35,1.88.51a9.87,9.87,0,0,0,3.63.29c1.87-.23,4.71-.47,5.68-2.37s-1.05-3.68-2.53-4.47a4.74,4.74,0,0,0-3.07-.53,16.39,16.39,0,0,0-1.69.5,6.29,6.29,0,0,0-1.57.63,13.83,13.83,0,0,0-2.93,2.21,7.76,7.76,0,0,0-1.61,2.67c-.07.19.24.32.33.14"/><path class="b" d="M402.7,241.52a6.73,6.73,0,0,1,1.94-1.18,17.45,17.45,0,0,1,2.33-.94,6.63,6.63,0,0,0,.94-.43,5.68,5.68,0,0,1,1.22-.35c.87-.19,1.73-.44,2.61-.55a.17.17,0,1,0,0-.33,8.94,8.94,0,0,0-2.62.25,5.07,5.07,0,0,0-1.26.32c-.4.19-.76.43-1.18.59a15.7,15.7,0,0,0-2.29,1,7.08,7.08,0,0,0-2,1.31c-.17.19.1.46.27.28"/><path class="b" d="M407,225.65c-.36-.29-.78-.52-1.11-.84a4.49,4.49,0,0,0-1.11-.88,14.09,14.09,0,0,1-2.62-2c-.36-.34-.69-.72-1.06-1.06s-.76-.62-1.1-1a8.61,8.61,0,0,1-1.61-2.7,3.88,3.88,0,0,1-.38-2.29c.23-.91,1.22-1.21,2-1.43a2.61,2.61,0,0,1,2.78.6,6.7,6.7,0,0,1,1.49,2.55,15.58,15.58,0,0,1,.66,3.37c0,.23.12.43.17.65s0,.61.07.91c.08.54.48,1,.52,1.53,0,.19.32.27.35.05a4.46,4.46,0,0,0-.16-1.3,7,7,0,0,1,0-.91,4.26,4.26,0,0,0-.16-.79c-.12-.53-.08-1.11-.18-1.65a11.26,11.26,0,0,0-.5-2c-.64-1.8-1.95-4.07-4.16-3.86-1.72.16-3.67,1-3.57,3a7.15,7.15,0,0,0,.81,2.71,7.5,7.5,0,0,0,1.93,2.66c.54.47,1,1,1.5,1.5a21,21,0,0,0,1.73,1.39c.55.42,1.26.64,1.76,1.09a9.67,9.67,0,0,0,1.59,1.08c.23.15.52-.21.3-.38"/><path class="b" d="M406,222.09a10.7,10.7,0,0,0-.8-1.91,15.11,15.11,0,0,0-1.25-1.64c-.8-1-1.18-2.22-2.14-3.08-.13-.11-.36,0-.25.19.7,1,1.12,2.13,1.85,3.09.41.52.86,1,1.23,1.57a8.85,8.85,0,0,1,.83,1.92c.12.33.65.19.53-.14"/><path class="b" d="M407.14,226.19c0-.44.47-.8.76-1.09s.51-.54.75-.83a26.23,26.23,0,0,1,2.74-2.63c1.59-1.46,4.24-3.79,6.57-2.57,1.49.79,2.72,3,1.32,4.41a8.16,8.16,0,0,1-4.25,1.75,20.51,20.51,0,0,1-4.07.13,12.15,12.15,0,0,1-2.25-.14,2.65,2.65,0,0,0-1.67,0,.23.23,0,0,0,0,.4,6.5,6.5,0,0,0,2,.57,15.69,15.69,0,0,0,2.17.07,19.7,19.7,0,0,0,4.2-.21c1.69-.33,3.75-.89,4.84-2.33,1.3-1.72.14-4.11-1.44-5.2-2.42-1.68-5.15.08-7.05,1.7-.67.58-1.29,1.22-1.95,1.81a13,13,0,0,0-1.61,1.63c-.52.68-1.56,1.59-1.38,2.54,0,.19.32.14.33,0"/><path class="b" d="M407.59,225.53a24.92,24.92,0,0,0,2.79-1.11c.42-.21.83-.45,1.24-.68s.89-.41,1.35-.61c.83-.38,1.51-1,2.35-1.45s1.77-.85,2.6-1.32a.25.25,0,0,0-.19-.45c-.45.14-.93.19-1.37.36s-.82.37-1.23.56a9.81,9.81,0,0,0-1.25.64,10.63,10.63,0,0,1-1.21.81,12.9,12.9,0,0,0-1.24.6l-1.19.77a22.88,22.88,0,0,1-2.86,1.39c-.28.12-.08.6.21.49"/><path class="b" d="M410.81,208.87c-3.26-2-6.58-4.56-8.35-8a2,2,0,0,1,.16-2.42,2.18,2.18,0,0,1,2.07-.25,5.37,5.37,0,0,1,2.12,1.69,7,7,0,0,1,.78,1,10.66,10.66,0,0,1,.61,1.33,6.85,6.85,0,0,1,.53,1.43c.13.58.39,1.09.54,1.66.08.27.09.56.15.84s.2.56.27.85c.14.55.19,1.13.29,1.69a.11.11,0,0,0,.22,0,6,6,0,0,0,.14-1.59,6.32,6.32,0,0,0-.11-.76,11.18,11.18,0,0,1-.11-1.15c-.07-.55-.31-1.06-.43-1.6a6.86,6.86,0,0,0-.5-1.51c-.23-.5-.41-1-.67-1.52a8,8,0,0,0-1-1.3,6.56,6.56,0,0,0-2.33-1.86c-1.62-.66-3.73,0-4,1.89a4.19,4.19,0,0,0,.89,2.86,20.46,20.46,0,0,0,2,2.69,23.55,23.55,0,0,0,6.36,4.66.34.34,0,0,0,.34-.58"/><path class="b" d="M410.2,209.1c-.71-1.49-1-3.12-1.75-4.6a22,22,0,0,0-1.24-2,6.82,6.82,0,0,0-1.38-1.69.21.21,0,0,0-.29.29c.47.56.88,1.18,1.3,1.78a18.49,18.49,0,0,1,1.3,2c.72,1.41,1.1,3,1.84,4.38.08.14.29,0,.22-.13"/><path class="b" d="M411.38,209.34a7.07,7.07,0,0,1,1.81-3.38,29.5,29.5,0,0,1,2.45-3.12,12.22,12.22,0,0,0,1.2-1.29,2.66,2.66,0,0,1,1.65-.92,2.78,2.78,0,0,1,2.89,1.3,3.86,3.86,0,0,1,.49,1.48,1.55,1.55,0,0,1-.65,1.25,8.48,8.48,0,0,1-2.79,1.86,33.35,33.35,0,0,1-3.48,1.09,5.55,5.55,0,0,1-1,.22c-.32,0-.64,0-1,0a3.3,3.3,0,0,0-1.49.58l-.05,0q-.31.06.18.33c.07,0,.2-.22.27-.28s.41-.3.6-.47c.61-.52,1.19-1.08,1.77-1.64,1.17-1.16,2.22-2.43,3.33-3.65a.24.24,0,0,0-.35-.34c-1.32,1.2-2.58,2.45-3.85,3.72a14.33,14.33,0,0,1-1.81,1.67c-.37.27-.93.53-.89,1.08s.6.66,1.05.57c.22-.05.45-.13.67-.19s.41-.15.62-.19a3.28,3.28,0,0,1,.7,0,8.11,8.11,0,0,0,2.37-.56c.71-.22,1.42-.43,2.12-.69a11.16,11.16,0,0,0,2-.93,9.05,9.05,0,0,0,1.52-1.24,3.55,3.55,0,0,0,1.06-1.37,3,3,0,0,0-.12-1.89,3.81,3.81,0,0,0-2.73-2.68,3.9,3.9,0,0,0-3.75,1c-.29.32-.48.7-.79,1s-.62.62-.89,1a26,26,0,0,0-1.65,2.39c-.79,1.27-1.92,2.72-1.91,4.29a.19.19,0,1,0,.38,0"/><path class="b" d="M413.18,193.71a19,19,0,0,1-4.3-3.38,8.39,8.39,0,0,1-1.35-1.88,6.56,6.56,0,0,1-.79-2c-.29-1.59,1.55-2,2.76-1.63.8.25,1.12.89,1.55,1.54a8.19,8.19,0,0,1,1,2.45c.23.94.58,1.87.73,2.83,0,.29.07.59.09.89a2,2,0,0,1,0,.93.2.2,0,0,0,.26.27c.59-.29.61-1.17.59-1.73a11.2,11.2,0,0,0-.48-2.62,14.83,14.83,0,0,0-1.12-3.18,5.13,5.13,0,0,0-1.7-2c-1.32-.74-3.62-.61-4.39.86s.36,3.39,1.21,4.61a11.57,11.57,0,0,0,2.51,2.43,18,18,0,0,0,3.14,2.12c.34.17.63-.32.3-.51"/><path class="b" d="M413.23,194.1a20.64,20.64,0,0,0-.67-2.06c-.27-.67-.62-1.3-.95-1.95s-.67-1.07-1-1.63-.47-1-1-1.21c-.33-.11-.5.31-.31.54A8.46,8.46,0,0,1,410,189a5.93,5.93,0,0,0,.48.64,10.07,10.07,0,0,1,.56.88c.34.56.69,1.11,1,1.71a17.14,17.14,0,0,1,.79,1.94.21.21,0,0,0,.4-.1"/><path class="b" d="M414.35,194.33a4.39,4.39,0,0,1,.69-2.2,17,17,0,0,1,1.7-2c.62-.63,1.2-1.3,1.86-1.89a10.24,10.24,0,0,1,2.11-1.53,2,2,0,0,1,1.2-.2c.42.08.55.34.64.73a5.29,5.29,0,0,1,.14,2.13,4.18,4.18,0,0,1-1.19,2,3.37,3.37,0,0,1-.81.79c-.36.2-.76.33-1.13.51a6.54,6.54,0,0,1-1.3.56c-.46.12-.94.17-1.41.27s-.88.16-1.32.24-.82.33-1.26.44a.17.17,0,0,0,0,.32,5.14,5.14,0,0,0,1.3,0l.57,0a5.43,5.43,0,0,0,.88-.16c.47-.09,1-.13,1.41-.24a5.9,5.9,0,0,0,1.41-.55c.43-.22.9-.39,1.32-.63a4.16,4.16,0,0,0,1-1,4.76,4.76,0,0,0,1.35-2.33,6.05,6.05,0,0,0-.15-2.54,1.64,1.64,0,0,0-1.6-1.42,3.85,3.85,0,0,0-2.57,1.08,16.85,16.85,0,0,0-2.35,2.11,19.16,19.16,0,0,0-2.25,2.6,4.87,4.87,0,0,0-.72,2.88.22.22,0,0,0,.44,0"/><path class="b" d="M413.67,194.49c.7-.52,1.47-.92,2.16-1.45a8.68,8.68,0,0,1,1-.63,5.4,5.4,0,0,0,.87-.71c.57-.5,1.2-.94,1.74-1.47a7.11,7.11,0,0,0,1.33-1.81.24.24,0,0,0-.42-.25,8.59,8.59,0,0,1-1.54,1.59c-.54.49-1.09,1-1.61,1.51a4.91,4.91,0,0,1-.86.72,5.75,5.75,0,0,0-.84.63c-.64.57-1.38,1-2,1.59-.15.13.05.4.22.28"/><path class="b" d="M414.11,179.77c-.65-.39-1.28-.8-1.92-1.21a13.5,13.5,0,0,1-1.74-1.16,11.83,11.83,0,0,1-1.23-1.41,3.81,3.81,0,0,1-1-1.68,7.66,7.66,0,0,0-.23-.82c-.06-.21-.16-.45,0-.64a2,2,0,0,1,1.23-.38,2.56,2.56,0,0,1,2.31,1.63c.36.63.66,1.3,1,2q.24.52.51,1.05a7.69,7.69,0,0,1,.57,1.15c.05.15.29.13.28,0a7.43,7.43,0,0,0-.6-2.31,15.45,15.45,0,0,0-.89-2.19,3.62,3.62,0,0,0-2.94-2.19c-1.08,0-2.63.47-2.4,1.81a9,9,0,0,0,.25.89,5.09,5.09,0,0,0,.38,1.14,12.81,12.81,0,0,0,1.5,1.87,6.94,6.94,0,0,0,1.92,1.52c.88.53,1.75,1.08,2.66,1.58a.33.33,0,0,0,.33-.57"/><path class="b" d="M414.36,179.55a13,13,0,0,0-1.77-2.65c-.33-.41-.75-.71-1.11-1.08a5.92,5.92,0,0,0-1.08-1.1c-.2-.12-.49.13-.34.33a11.77,11.77,0,0,0,.91,1.17c.35.38.79.65,1.13,1a12.53,12.53,0,0,1,1.79,2.56c.16.32.62,0,.47-.27"/><path class="b" d="M415,180.15a13,13,0,0,1,1.1-2c.51-.68,1.18-1.25,1.72-1.9a17.71,17.71,0,0,1,3.4-3.41,1.47,1.47,0,0,1,2,.27,2.7,2.7,0,0,1,.69,2,2.73,2.73,0,0,1-1,1.71,6.15,6.15,0,0,1-1.87.92c-.88.33-1.75.63-2.6,1-.38.19-.77.36-1.13.56l-.55.29c-.2.11-.37.34-.61.34l.17.29c.12-.25.46-.41.65-.61s.42-.59.66-.85c.55-.62,1.11-1.22,1.65-1.85,1.17-1.35,2.52-2.52,3.65-3.9a.26.26,0,0,0-.37-.37c-1.08.89-2.17,1.75-3.19,2.72a19.34,19.34,0,0,0-1.38,1.62c-.4.48-.86.91-1.24,1.4a4.54,4.54,0,0,0-.78,1.3c-.15.46.07.6.46.76.61.26,1-.09,1.57-.36a15.5,15.5,0,0,1,1.94-.9,11.65,11.65,0,0,0,3.36-1.44,3.6,3.6,0,0,0,1.59-3,3.45,3.45,0,0,0-1.65-2.91c-1.2-.67-2.25-.12-3.17.72a16,16,0,0,0-1.58,1.61c-.48.59-.92,1.21-1.38,1.82s-1.06,1.17-1.48,1.84a13.61,13.61,0,0,0-.94,2c-.1.22.21.42.33.19"/><path class="b" d="M415.72,168.21a6.23,6.23,0,0,0-1.5-.92,5.53,5.53,0,0,1-1.56-1,18.42,18.42,0,0,1-2.62-2.75c-.32-.45-.63-.94-.91-1.42-.13-.23-.11-.3.12-.47a1.69,1.69,0,0,1,1-.23c.59,0,1.16-.34,1.72,0a2.11,2.11,0,0,1,.78,1.09l.84,2c.14.33.22.67.35,1a2.09,2.09,0,0,0,.25.44c.1.13.32.27.34.44a.2.2,0,0,0,.38.06.94.94,0,0,0-.14-.76,4,4,0,0,1-.3-1.12,12.14,12.14,0,0,0-.85-2.24,3.46,3.46,0,0,0-.95-1.42,2,2,0,0,0-1.88-.33,8.24,8.24,0,0,1-1.11.16,2.13,2.13,0,0,0-1,.46,1.06,1.06,0,0,0-.15,1.51,15.44,15.44,0,0,0,1.11,1.77,12.41,12.41,0,0,0,1.64,1.68,9.32,9.32,0,0,0,1.88,1.5,10,10,0,0,0,1.2.42,5.74,5.74,0,0,0,1.2.5c.15,0,.33-.17.17-.3"/><path class="b" d="M415.21,167.93a10.71,10.71,0,0,0-1.34-2.55,11.14,11.14,0,0,0-2-2.14.22.22,0,0,0-.31.31c.57.74,1.25,1.4,1.81,2.15a14.08,14.08,0,0,1,1.5,2.36c.08.17.37.05.31-.13"/><path class="b" d="M416,167.53c-.19-.18.16-.78.24-1a9.77,9.77,0,0,1,.39-.94,16.85,16.85,0,0,1,1.1-1.69,7.49,7.49,0,0,1,2.88-2.92c.16-.07.41-.2.57-.07a1.68,1.68,0,0,1,.33.73,3.24,3.24,0,0,1-.12,1.77,4.69,4.69,0,0,1-1,1.52,10.05,10.05,0,0,1-.66.78,4.52,4.52,0,0,1-.85.5,4,4,0,0,0-.81.56,2.87,2.87,0,0,1-.5.36,5.43,5.43,0,0,1-.53.17c-.34.13-.59.42-.92.55s-.67,0-.91.31a.18.18,0,0,0,0,.27,1,1,0,0,0,.89.26,2.91,2.91,0,0,0,1.09-.53,8.81,8.81,0,0,0,1.1-.46,8.51,8.51,0,0,1,1-.74,4.84,4.84,0,0,0,.93-.55,10.76,10.76,0,0,0,.84-.95,5.38,5.38,0,0,0,1.14-1.87,4,4,0,0,0,.08-2.24c-.15-.57-.47-1.27-1.11-1.37a3.05,3.05,0,0,0-2.13.9,7.75,7.75,0,0,0-1.67,1.85,22,22,0,0,0-1.43,2.42,9.73,9.73,0,0,0-.48,1.27,1.46,1.46,0,0,0,.08,1.21.19.19,0,0,0,.21.08l.13-.05a.1.1,0,0,0,.05-.17"/><path class="b" d="M415.8,167.62c.73-.57,1.46-1.15,2.17-1.75a6.8,6.8,0,0,0,.9-.88,11.37,11.37,0,0,0,.55-1,.39.39,0,0,0-.53-.53,1,1,0,0,0-.45.47c-.09.16-.15.34-.25.49a8.63,8.63,0,0,1-.85.86c-.63.67-1.28,1.32-1.94,2-.27.27.12.62.4.4"/><path class="b" d="M414.68,154.94a5.23,5.23,0,0,1-3.15-1.47c-.39-.37-.73-.8-1.09-1.2a2.34,2.34,0,0,1-.74-1.15c-.14-.88.83-2,1.66-1.25a4.12,4.12,0,0,1,.75,1.13,10.17,10.17,0,0,0,.93,1.23,7.38,7.38,0,0,1,.93,1.64c.14.29.32.56.43.86a6.35,6.35,0,0,0,.38.84c.06.08.2,0,.17-.07a6.66,6.66,0,0,1-.11-1,4.56,4.56,0,0,0-.2-1,5.61,5.61,0,0,0-.89-1.78,14.79,14.79,0,0,1-1.14-1.47,2.83,2.83,0,0,0-1.11-1.14,1.85,1.85,0,0,0-2.48,1.47,2,2,0,0,0,.4,1.6,13.88,13.88,0,0,0,1.25,1.4,5.88,5.88,0,0,0,4,1.83.22.22,0,0,0,0-.44"/><path class="b" d="M415,156a9.69,9.69,0,0,0-1.62-2.2c-.32-.36-.61-.75-.94-1.1a3.16,3.16,0,0,0-.42-.4c-.14-.11-.33-.22-.35-.42a.13.13,0,0,0-.26,0c0,.36.26.61.5.83a13.18,13.18,0,0,1,1,1.11,12,12,0,0,1,1.78,2.36c.1.21.41,0,.31-.18"/><path class="b" d="M415.41,155.86h.17a.2.2,0,0,0,.18-.25A4.93,4.93,0,0,1,417,151.9a19.42,19.42,0,0,1,2.56-3c.37-.35.8-.48,1.16,0a2,2,0,0,1,.33,1.32c0,1.2-1.06,2.14-1.88,2.91a6.07,6.07,0,0,1-.85.58,10.72,10.72,0,0,1-.88.62,6.9,6.9,0,0,1-.85.45,5.33,5.33,0,0,0-1,.36.24.24,0,0,0-.11.28l0,.13a.19.19,0,0,0,.35.05l.09-.12-.29.11c.21,0,.38.14.59.17a1.31,1.31,0,0,0,.59-.06,8.08,8.08,0,0,0,1-.49,9.23,9.23,0,0,0,.89-.6,11.09,11.09,0,0,0,1-.65,5.51,5.51,0,0,0,2.3-3.7c.05-1.16-.69-2.92-2.16-2.53a3.49,3.49,0,0,0-1.52,1.2,17.6,17.6,0,0,0-1.67,2c-.93,1.27-2.24,3.29-1.18,4.82l.07-.26-.14.07a.16.16,0,0,0,.07.29"/><path class="b" d="M415.38,155.68c.36-.29.73-.57,1.08-.87a5.15,5.15,0,0,0,.91-1.06c.25-.38.5-.76.78-1.12s.58-.77.82-1.17a.29.29,0,0,0-.4-.4,6.47,6.47,0,0,0-1.84,2.15c-.24.37-.47.74-.74,1.09s-.61.71-.92,1.07a.22.22,0,0,0,.31.31"/><path class="b" d="M413.84,147.2l.07.06.21-.37c-.25-.1-.53,0-.8-.14s-.58-.27-.87-.4a8.22,8.22,0,0,1-1.4-.95,6.5,6.5,0,0,1-1.11-1,3.19,3.19,0,0,1-.77-1c-.31-.81,1.26-.58,1.65-.55a2.54,2.54,0,0,1,2.13,1.58,4.85,4.85,0,0,1,.26.69,8.33,8.33,0,0,0,.39.93c.13.29.22.61.34.91a10,10,0,0,1,.48,1,.08.08,0,0,0,.15,0,7.61,7.61,0,0,0-.11-1.07,3.89,3.89,0,0,0-.12-1.08c-.11-.32-.24-.62-.32-.94a3.73,3.73,0,0,0-.3-.87,3.3,3.3,0,0,0-2.8-1.9c-.81,0-2.2-.18-2.48.84a1.75,1.75,0,0,0,.51,1.46,6.55,6.55,0,0,0,1.11,1.18c.28.22.59.41.87.62a5.14,5.14,0,0,0,1,.65,2.76,2.76,0,0,0,2.22.4.21.21,0,1,0-.21-.36l-.07.05a.15.15,0,0,0,0,.2"/><path class="b" d="M414.58,148a4.74,4.74,0,0,0-1-2c-.33-.31-.69-.58-1-.91s-.71-.67-1.08-1a.13.13,0,0,0-.19.18,12.91,12.91,0,0,0,.9,1c.33.3.68.56,1,.83a4.19,4.19,0,0,1,1.19,1.91c0,.11.21.07.17,0"/><path class="b" d="M415.34,147.73c-.55-.52-.18-1.07.12-1.6a11.19,11.19,0,0,1,1-1.56,11,11,0,0,1,1.53-1.6,2,2,0,0,1,.82-.43c.24,0,.42.1.5.39a3.35,3.35,0,0,1,0,1.41,2.63,2.63,0,0,1-.85,1.38,9.22,9.22,0,0,1-1.69,1.37,2.59,2.59,0,0,1-.74.29c-.3.07-.55.31-.84.36a.29.29,0,0,0-.06.52.85.85,0,0,0,.44.11,2.92,2.92,0,0,0,.49-.12c.14,0,.28,0,.43,0a2.11,2.11,0,0,0,.47-.19,8.48,8.48,0,0,0,1.85-1.48,4,4,0,0,0,1.23-1.8,4.44,4.44,0,0,0,0-1.85,1.33,1.33,0,0,0-.85-1.06,1.54,1.54,0,0,0-1.23.27,8.39,8.39,0,0,0-1.95,1.95,10.56,10.56,0,0,0-1.13,2.09,1.35,1.35,0,0,0,.28,1.81c.14.1.32-.13.19-.24"/><path class="b" d="M415.35,147.86a6.84,6.84,0,0,0,1.06-.59,4.32,4.32,0,0,0,.93-.88q.2-.25.36-.51a.35.35,0,0,1,.05-.08l0,0s0,0,0,0l.13-.18a1.26,1.26,0,0,0,.32-.94.24.24,0,0,0-.47,0,.6.6,0,0,1-.15.23,4.11,4.11,0,0,0-.29.3c-.2.25-.36.52-.56.77a7.94,7.94,0,0,1-1.64,1.48.24.24,0,0,0,.24.42"/><path class="b" d="M413.89,141.85c-.48-.5-1-1-1.49-1.46a5.33,5.33,0,0,1-1.17-1.38,6.91,6.91,0,0,1-.55-1.52,10.36,10.36,0,0,1-.38-1.53,1.59,1.59,0,0,1,.9-1.33,1.16,1.16,0,0,1,1.48.39,3.77,3.77,0,0,1,.73,1.35,7.8,7.8,0,0,1,.44,1.91,8.8,8.8,0,0,1,0,1.15c0,.32-.14.63-.17,1s0,.72-.05,1.08.14.73,0,1a.14.14,0,0,0,.19.2.8.8,0,0,0,.38-.53c.09-.37.17-.75.27-1.13a8.77,8.77,0,0,0,.28-2.34,6.63,6.63,0,0,0-1.36-4.1,2.19,2.19,0,0,0-1.7-.86,2.32,2.32,0,0,0-1.63,1,1.89,1.89,0,0,0-.38,1.71c.17.63.37,1.29.6,1.9a5,5,0,0,0,1.09,1.87c.71.7,1.53,1.29,2.25,2a.18.18,0,0,0,.26-.25"/><path class="b" d="M413.93,140.88c0-.55-.08-1.11-.17-1.65a11.4,11.4,0,0,0-.38-1.53,4.54,4.54,0,0,0-1.18-2.4.13.13,0,1,0-.18.18,5.6,5.6,0,0,1,1.07,2.38,10.4,10.4,0,0,1,.34,1.36,15.29,15.29,0,0,1,.16,1.66c0,.21.35.21.34,0"/><path class="b" d="M351.44,93.36c-1.43,7.09-2.12,14.31-3.18,21.46-.55,3.73-1.32,7.44-1.54,11.2-.21,3.39-.94,6.76-1,10.15-.13,14.3,0,28.65.69,42.9.15,3.23.28,6.45.44,9.68a41.21,41.21,0,0,1,0,5,25.44,25.44,0,0,0,.28,4.62c.26,2.69.64,5.35.92,8,.19,1.79.09,3.58.33,5.37a41.74,41.74,0,0,1,.68,4.71,87.41,87.41,0,0,0,.34,9.43c.2,1.62.92,3.06,1.18,4.68s.43,3.3.56,5c.56,7.23,2.2,14.38,3.33,21.53,1.18,7.48,3.93,14.93,6.33,22.11,1.26,3.76,2.66,7.47,4,11.2.64,1.78,1.42,3.51,1.95,5.32.61,2.13,1,4.31,1.7,6.41.26.8-.94,1.09-1.23.34-1.33-3.45-2.28-7-3.59-10.49q-1.83-4.81-3.5-9.7a178.24,178.24,0,0,1-5.77-20.12c-1.49-7-2.62-14.1-3.67-21.21-.52-3.47-.54-7-1.15-10.47-.24-1.35-.89-2.57-1.06-3.92a43.1,43.1,0,0,1-.39-5.08c0-1.55.18-3.08.2-4.63a35.36,35.36,0,0,0-.65-5c-.46-3.41-.06-7-.57-10.34-.91-6-.85-12.21-1.74-18.27a51.44,51.44,0,0,1-.65-9.27c.14-3.55-.39-7.12-.39-10.69,0-7.51.08-15,0-22.53a119.2,119.2,0,0,1,2.27-22.52c1.53-8.3,2.5-16.7,4.48-24.91,0-.19.32-.11.28.08"/><path class="b" d="M356.77,268.74c-.19-3.53.65-6.46,1.75-9.78.57-1.77,1.05-3.56,1.66-5.31.69-2,1.71-3.77,2.45-5.71a71.76,71.76,0,0,1,4.64-9.23,20.93,20.93,0,0,1,6.19-7.13c1.88-1.31,5.28-2.77,7.6-1.83s3.36,3.92,3.42,6.28c.16,6.81-5.52,12.59-10.11,17-2.88,2.76-6.1,5.25-9.09,7.9-1.57,1.39-3.15,2.76-4.69,4.2-1.26,1.19-2.46,2.89-4,3.71-.59.31-1.11-.56-.53-.89a15.61,15.61,0,0,0,3-2.87c1.16-1.18,2.44-2.3,3.67-3.42,2.13-1.94,4.42-3.83,6.68-5.63,4.63-3.69,9.35-8.27,12.32-13.45,1.58-2.73,2.65-6.63,1.27-9.66-2-4.29-7.29-2.14-10,.15a22.88,22.88,0,0,0-5.42,6.94,87.13,87.13,0,0,0-4.32,8.85c-.64,1.61-1.51,3.11-2.1,4.74s-1,3.32-1.6,5c-1.18,3.41-2.34,6.58-2.52,10.22a.14.14,0,1,1-.27,0"/><path class="b" d="M379.13,237.7c-2.35,2.4-4.42,5.05-6.62,7.58-1,1.13-1.88,2.33-2.88,3.43a32.56,32.56,0,0,0-3.29,3.94c-1.66,2.49-3.49,4.87-4.94,7.47-.79,1.41-1.48,2.83-2.13,4.31-.49,1.13-1.43,1.92-1.95,3a.48.48,0,0,1-.89-.24c.09-1.09,1.12-1.85,1.61-2.79.72-1.38,1.3-2.8,2.08-4.15,1.61-2.82,3.65-5.35,5.48-8a24.9,24.9,0,0,1,2.77-3.38c1.08-1.11,2-2.34,3.05-3.49,2.44-2.68,4.73-5.5,7.33-8a.27.27,0,0,1,.38.38"/><path class="b" d="M369.17,243.77a33.56,33.56,0,0,0-3.64,5.62c-1.06,2-2.42,3.72-3.32,5.76a28.93,28.93,0,0,0-1.38,2.65c-.32,1-.82,1.94-1.09,3a24.77,24.77,0,0,1-1,2.78c-.39,1-.93,2-1.26,2.95a.22.22,0,0,1-.43-.06,7.55,7.55,0,0,1,.77-2.73c.41-1.06.85-2,1.16-3.14s.83-2.06,1.18-3.11a26.36,26.36,0,0,1,1.42-2.61,65.5,65.5,0,0,1,3.52-5.69,34,34,0,0,1,3.88-5.56c.1-.11.27.06.17.18"/><path class="b" d="M350.93,231.82a103.38,103.38,0,0,1,10.26-16.59c.88-1.2,1.81-2.36,2.7-3.56a28,28,0,0,1,3.19-3.25,11.43,11.43,0,0,1,6.78-3.54c2.16-.16,4.19,0,4.82,2.31a12.51,12.51,0,0,1-.38,7.65c-2.17,5.2-7.19,8.7-11.71,11.77a92,92,0,0,1-8.22,5.44,20.07,20.07,0,0,1-4.34,1.67c-1.2.32-2.58,1-3.81.52a.41.41,0,0,1,.11-.8,11.79,11.79,0,0,0,3.33-1,31.32,31.32,0,0,0,3.55-1.43,42.51,42.51,0,0,0,6.24-3.93c4.11-3,9.11-5.26,12.28-9.36a14.61,14.61,0,0,0,1.69-2.92,10.3,10.3,0,0,0,.73-4.33c0-1.1.21-2.63-.41-3.62-.83-1.33-2.71-1.27-4.09-1.13-3,.3-5.27,2.56-7.31,4.55a49.64,49.64,0,0,0-5.29,6.44A116,116,0,0,0,351.28,232c-.12.24-.46,0-.35-.2"/><path class="b" d="M371.19,210.5c-1.73,1.69-3.23,3.61-5,5.24-.82.76-1.42,1.67-2.19,2.47a36.72,36.72,0,0,0-2.77,3.2c-.65.86-1.23,1.77-1.92,2.61s-1.77,1.82-2.49,2.85c-1.36,1.93-2.41,4.07-3.83,6l-.47-.61.2-.12a.25.25,0,0,1,.36.14.81.81,0,0,1-.09.59c-.23.49-.93.07-.72-.42.48-1.1,1.29-2.06,1.85-3.12a30.56,30.56,0,0,1,1.88-2.9,27.52,27.52,0,0,1,2.25-2.58c.84-.93,1.52-2,2.29-2.94a36.38,36.38,0,0,1,2.44-2.81c.81-.84,1.51-1.81,2.36-2.6,1.87-1.74,3.59-3.61,5.5-5.3.24-.21.58.12.35.34"/><path class="b" d="M369.42,217a35.82,35.82,0,0,0-2.34,2.73c-.58.75-1.33,1.31-1.94,2s-1.42,1.59-2.15,2.37-1.68,1.51-2.45,2.33c-1.42,1.51-2.69,3.22-4.21,4.62a7.9,7.9,0,0,1-1.13.87,12.57,12.57,0,0,0-1.23,1.07,3,3,0,0,1-2.39.42c-.5-.07-.3-.75.11-.8a3.36,3.36,0,0,0,1.79-.48,11.63,11.63,0,0,1,.87-.85,11.83,11.83,0,0,0,2.35-2,45.46,45.46,0,0,1,4-4.22c1.53-1.29,2.83-2.81,4.28-4.18.35-.34.77-.6,1.12-.94s.6-.71.91-1.06c.69-.76,1.39-1.53,2.13-2.25a.21.21,0,0,1,.29.29"/><path class="b" d="M347.49,206c1.31-1.94,2.27-4.14,3.51-6.13.6-.95,1.06-2,1.69-2.92s1.38-1.85,2.1-2.77c3-3.79,6.13-7.63,10.16-10.4.14-.09.3.12.18.24a69.24,69.24,0,0,0-5.27,4.86c-1.64,1.84-3.12,3.76-4.63,5.69-.73.94-1.52,1.83-2.19,2.82s-1.13,1.92-1.74,2.87c-1.23,1.93-2.22,4-3.53,5.9-.12.17-.4,0-.28-.16"/><path class="b" d="M374,188.16a14.89,14.89,0,0,1-3,6.75c-1.75,2.28-4.58,3.81-6.93,5.38a51.34,51.34,0,0,1-7.57,4.61,36.36,36.36,0,0,1-3.77,1.41,5.75,5.75,0,0,1-3.89.22.28.28,0,0,1,0-.49c1.1-.53,2.41-.43,3.59-.81a31,31,0,0,0,3.86-1.48,66.84,66.84,0,0,0,6.72-3.87c2.29-1.42,5-2.76,6.89-4.67a12.47,12.47,0,0,0,2.22-3.2,15.05,15.05,0,0,0,1.74-3.86c0-.06.12-.05.11,0"/><path class="b" d="M365.89,183a9.28,9.28,0,0,1,4.35-1.73,3.59,3.59,0,0,1,2.17.53c.54.37,1.08.81,1.58,1.23,1,.84.88,2.08.92,3.26,0,.61-.11,2.11-1,2.08a.19.19,0,0,1-.1-.35c.59-.37.32-1.44.29-2s0-.86,0-1.29a1.91,1.91,0,0,0-.94-1.41c-.43-.32-.81-.71-1.26-1a3.44,3.44,0,0,0-1.95-.35,9.32,9.32,0,0,0-3.84,1.36.19.19,0,0,1-.2-.33"/><path class="b" d="M372.86,185.91c-.73,1.25-1.43,2.52-2.14,3.78a19.41,19.41,0,0,1-2.58,3.21,17.13,17.13,0,0,1-1.32,1.61c-.48.43-1,.79-1.43,1.27a15.89,15.89,0,0,1-2.81,2.75c-2.32,1.44-4.37,3.3-6.75,4.65a35,35,0,0,0-3.42,2.08c-.81.59-2.11,1.56-3.15,1.23a.45.45,0,0,1-.31-.55,1.74,1.74,0,0,1,.05-.22.38.38,0,0,1,.36-.27l.2,0a.27.27,0,0,1,.23.41l0,.1-.43-.33c1.24.08,2.58-1.34,3.57-1.94s2.11-1.18,3.12-1.85c.45-.29,1-.46,1.41-.75s1.13-.89,1.7-1.31,1-.81,1.55-1.18,1.07-.52,1.57-.84a21.06,21.06,0,0,0,2.87-2.72c.44-.44,1-.73,1.44-1.15s.73-.94,1.13-1.36a18.3,18.3,0,0,0,2.72-3.18q1.08-1.79,2.19-3.54a.12.12,0,1,1,.21.12"/><path class="b" d="M361.76,193.87a17,17,0,0,1-1.41,1.74c-.52.6-1,1.26-1.47,1.87a18.08,18.08,0,0,1-1.7,1.69,13.47,13.47,0,0,0-1.79,1.67c-1,1.24-2.31,2.11-3.34,3.29a4,4,0,0,1-1.38,1.25,4.29,4.29,0,0,1-.81.15,2,2,0,0,1-.95.05.27.27,0,0,1-.12-.45,2.25,2.25,0,0,1,.67-.47c.26-.11.54-.1.79-.19.56-.2.93-.87,1.33-1.28.55-.56,1.17-1.06,1.76-1.59A16.1,16.1,0,0,0,354.9,200a12.38,12.38,0,0,1,1.66-1.41,16.65,16.65,0,0,0,1.73-1.52c.49-.51.92-1.08,1.4-1.61a21.34,21.34,0,0,0,1.64-1.79c.19-.25.6,0,.43.24"/><path class="b" d="M346.17,181a134.76,134.76,0,0,1,9.16-12.23,54.23,54.23,0,0,1,5.07-5.1,7.4,7.4,0,0,1,5.62-1.95c1.86.22,2.44,1.95,3,3.47a7.49,7.49,0,0,1-.24,6.13c-1.86,4.3-6.3,6.94-10.18,9.23a17.43,17.43,0,0,1-6.95,2.61,33.13,33.13,0,0,1-3.73,0c-.66,0-1.36-.12-1.55-.84a.46.46,0,0,1,.84-.36c.15.27,1.45.05,1.73,0a21.5,21.5,0,0,0,3.5-.2,17.77,17.77,0,0,0,5.39-2.21c1.67-1,3.29-2,4.86-3.1a18.14,18.14,0,0,0,4.51-4.09,8.38,8.38,0,0,0,1.51-6.31,7.66,7.66,0,0,0-.83-2.65c-.83-1.38-2.24-1.35-3.65-1a7.51,7.51,0,0,0-2.68,1.05,24.74,24.74,0,0,0-2.14,1.95,56.34,56.34,0,0,0-4.23,4.38,133.6,133.6,0,0,0-8.84,11.3c-.09.13-.3,0-.21-.12"/><path class="b" d="M361.74,171.51c-.78,1.14-1.81,2.05-2.67,3.13a16.69,16.69,0,0,1-1.39,1.4c-.54.51-1,1.07-1.58,1.59a13.09,13.09,0,0,1-3.39,2.37c-.64.3-1.32.5-2,.75s-1,.61-1.6.44c-.15-.05-.17-.29,0-.32a8.16,8.16,0,0,0,1.65-.87c.64-.29,1.25-.61,1.87-.94a14.08,14.08,0,0,0,3.22-2.42c.45-.45.87-.94,1.35-1.36a18.65,18.65,0,0,0,1.4-1.27c.88-1,1.93-1.74,2.76-2.78.16-.21.51.06.36.28"/><path class="b" d="M356.21,173.78c-.93,1-1.83,1.95-2.73,2.93s-1.77,1.51-2.6,2.33a15.39,15.39,0,0,1-2.65,2c-.59.37-1.55,1.14-2.28.76a.26.26,0,0,1,.06-.47c.39-.15.8-.22,1.18-.38a12.62,12.62,0,0,0,1.22-.61,18.37,18.37,0,0,0,2.63-2,31.67,31.67,0,0,0,2.41-2.07c.85-.9,1.72-1.79,2.61-2.65a.11.11,0,1,1,.15.15"/><path class="b" d="M344.82,157.06a79.94,79.94,0,0,1,7.65-11.72c2.16-2.69,5.33-5.93,9.12-5.52,3.58.39,4.32,5,3.34,7.83a11.83,11.83,0,0,1-3.44,4.88,14.69,14.69,0,0,1-2.6,1.73c-.87.48-1.7,1.06-2.61,1.45a30.67,30.67,0,0,1-4,1.23,32.74,32.74,0,0,1-3.92.78c-.54.08-3.22.42-2.5-.91a.25.25,0,0,1,.45.06c.11.58,8.54-1.8,9.38-2.11a18.87,18.87,0,0,0,2.36-1.23,17,17,0,0,0,2.51-1.48,11.56,11.56,0,0,0,3.38-4.13,7.56,7.56,0,0,0,.23-5.34c-.6-1.76-2.26-2.31-4-2.05-3.25.49-5.86,3.43-7.82,5.84A83.31,83.31,0,0,0,345,157.19a.12.12,0,0,1-.21-.13"/><path class="b" d="M358.21,148.72a8.22,8.22,0,0,1-1,1.49c-.43.43-.85.87-1.31,1.28-1,.91-1.89,2-3,2.82a18.51,18.51,0,0,1-3.14,1.88c-.64.32-1.29.6-1.92.93-.39.2-.67.45-1.11.21a.24.24,0,0,1,.06-.44,2.36,2.36,0,0,0,.57-.38,6.31,6.31,0,0,1,.71-.42l1.6-.79a15.14,15.14,0,0,0,3-1.89c.89-.75,1.72-1.58,2.65-2.29.44-.33.84-.71,1.27-1.06a7.11,7.11,0,0,0,1.29-1.5c.13-.16.4,0,.29.16"/><path class="b" d="M353.6,149.9a15.26,15.26,0,0,1-3.72,4.25c-.74.64-1.51,1.23-2.22,1.88a2.64,2.64,0,0,1-1.77.94.23.23,0,0,1,0-.46c.32,0,.57-.33.8-.53l.7-.63c.72-.64,1.48-1.24,2.21-1.88a17.17,17.17,0,0,0,3.65-3.77.2.2,0,0,1,.35.2"/><path class="b" d="M346.41,128.75a34.57,34.57,0,0,1,3-4.26c1.1-1.36,2.2-2.78,3.42-4a11.18,11.18,0,0,1,3.84-2.84c1.24-.46,2.71-1.08,4.06-.76,3,.71,3.44,4.14,2.74,6.63a8.13,8.13,0,0,1-2.41,3.52,25.38,25.38,0,0,1-4,3.37,9.65,9.65,0,0,1-5.13,1.61,7.72,7.72,0,0,1-2.62-.62c-.46-.19-.92-.38-1.41-.53a1.36,1.36,0,0,1-.65-.34c-.23-.22.11-.54.35-.34a5.21,5.21,0,0,0,1.6.47,7.85,7.85,0,0,0,2.29.47,9.76,9.76,0,0,0,4.36-1.08,15.81,15.81,0,0,0,3.81-2.85,16,16,0,0,0,2.69-2.82c1.47-2.26,1.32-6.44-1.95-6.94a8,8,0,0,0-3.8.91,11.6,11.6,0,0,0-3.69,2.77,49.72,49.72,0,0,0-6.39,7.73c0,.07-.17,0-.12-.07"/><path class="b" d="M356.28,124.88a25.27,25.27,0,0,1-4.33,3.23,19.23,19.23,0,0,1-2.51,1.09,11.42,11.42,0,0,0-1.28.45,11.23,11.23,0,0,1-1.06.49.21.21,0,0,1-.23-.3c.34-.66,1.22-.91,1.87-1.13.93-.33,1.86-.67,2.76-1.08a24.24,24.24,0,0,0,4.53-3.07c.18-.14.43.18.25.32"/><path class="b" d="M351.8,126a15.51,15.51,0,0,1-2.47,2,6.32,6.32,0,0,0-.56.33,5.59,5.59,0,0,0-.52.45,1.69,1.69,0,0,1-1.27.59c-.26,0-.2-.4,0-.47a3.87,3.87,0,0,0,1-.79,6,6,0,0,1,1.13-.64,15.58,15.58,0,0,0,2.44-1.76c.15-.1.34.14.2.26"/><path class="b" d="M348.46,110.53a27.36,27.36,0,0,0,2.33-3.31,16.94,16.94,0,0,1,1.77-2.75c1.44-1.66,3.65-2.11,5.75-2.35a2.59,2.59,0,0,1,2.38,1.27,4.5,4.5,0,0,1,.83,2.82,3.08,3.08,0,0,1-1,2.58,6.85,6.85,0,0,1-2.78,1.5,13.56,13.56,0,0,1-1.95.57c-.66.11-1.33.17-2,.29s-1.26.35-1.92.41a3.17,3.17,0,0,1-1.65-.36c-.16-.07-.07-.32.09-.33.45,0,.89.06,1.33,0a8.06,8.06,0,0,0,1.68-.33c1-.21,2-.18,2.9-.45,1.58-.46,4.5-1.2,4.63-3.25a5,5,0,0,0-.54-2.85,3.18,3.18,0,0,0-1.16-1.2,2.34,2.34,0,0,0-1.41,0c-2,.31-3.83.78-5.13,2.43a32,32,0,0,0-1.78,2.78,27,27,0,0,1-2.12,2.76c-.16.19-.42-.08-.27-.27"/><path class="b" d="M357,107.75c-1.2.63-2.35,1.36-3.55,2-.55.3-1.09.64-1.66.9A5.29,5.29,0,0,1,350,111a.18.18,0,0,1-.13-.3,4.49,4.49,0,0,1,1.59-.63,17.6,17.6,0,0,0,1.81-.86c1.21-.59,2.38-1.25,3.59-1.82.22-.11.41.21.19.33"/><path class="b" d="M354.67,106.58a27.91,27.91,0,0,1-2.67,2.06c-.45.22-.75.66-1.24.82a2.65,2.65,0,0,1-.69.15,1.5,1.5,0,0,0-.6.07c-.17.09-.4-.09-.28-.27a1.77,1.77,0,0,1,1.08-.67,2,2,0,0,0,.58-.24,4,4,0,0,1,.7-.45,4.53,4.53,0,0,0,.74-.34c.24-.15.47-.32.7-.48a10.4,10.4,0,0,1,1.51-1,.18.18,0,0,1,.17.31"/><path class="b" d="M351,97.3a7.82,7.82,0,0,0,1.15-2.22,14.14,14.14,0,0,1,1-1.68A37.35,37.35,0,0,0,355,89.79a8.91,8.91,0,0,0,.68-4c0-1.22-.51-3-2-3.22-1.26-.16-2.24,1.27-2.79,2.21a9.51,9.51,0,0,0-.78,1.48c-.1.29-.1.61-.18.9a9.1,9.1,0,0,0-.29,1,11.33,11.33,0,0,0,.35,4.1,34.6,34.6,0,0,1,.72,4.29c0,.31-.46.36-.54.07-.36-1.37-.55-2.78-.92-4.16a14.16,14.16,0,0,1-.39-3.79,4.58,4.58,0,0,1,.27-1.51,10.05,10.05,0,0,1,.48-1.62,8.75,8.75,0,0,1,1.87-2.6,2.81,2.81,0,0,1,2.24-.88,2.57,2.57,0,0,1,1.82,1.56,5.8,5.8,0,0,1,.52,2.85,8.12,8.12,0,0,1-.62,3.26,23.93,23.93,0,0,1-2.16,4.06,11.9,11.9,0,0,0-1.15,2.06,5.2,5.2,0,0,1-1.05,1.54c-.08.09-.21,0-.13-.13"/><path class="b" d="M354,86.23a42.32,42.32,0,0,0-1.56,5.41c-.06.46-.21.92-.23,1.38a7,7,0,0,1-.08,1.21c-.09.53,0,1.51-.57,1.74a.15.15,0,0,1-.18-.19,3.14,3.14,0,0,0,0-1.06c0-.39.15-.76.16-1.14a8.61,8.61,0,0,1,.08-1.24c.09-.43.16-.86.25-1.29.39-1.7,1.25-3.25,1.79-4.91a.16.16,0,0,1,.31.09"/><path class="b" d="M351.44,88a9.22,9.22,0,0,0-.3,2c0,.76.05,1.52.08,2.28a25.85,25.85,0,0,1-.07,4.4c0,.23-.44.23-.47,0a26.83,26.83,0,0,1-.07-4.57c0-.76,0-1.52.09-2.26a9.37,9.37,0,0,1,.46-2,.15.15,0,0,1,.28.08"/><path class="b" d="M367.21,302.71c-.6-1.92-2.52-3.19-4.1-4.24s-3-2.1-4.53-3.12a53.34,53.34,0,0,0-10-5.07A60.69,60.69,0,0,0,337.31,287a45.18,45.18,0,0,0-12.85-1c-3.74.37-9,2.15-10.36,6.06-1.47,4.32,1.78,8.08,5.16,10.33s7.76,2.23,11.66,2.73,7.67.05,11.59-.11,7.95-.68,11.95-.83a24.93,24.93,0,0,0,6.32-.91,33.49,33.49,0,0,1,5.28-.7.45.45,0,0,1,.24.87c-1.8.64-3.64.62-5.5,1.13a23.44,23.44,0,0,1-6,.7c-4.5.09-9,.56-13.49.78-2.17.1-4.32.35-6.51.35a53.87,53.87,0,0,1-7.16-.68c-4-.54-7.81-1.23-10.89-4.08-2.33-2.15-4.34-5.06-3.92-8.35.46-3.6,3.67-6.11,6.95-7.26,4.05-1.43,8.65-1.32,12.85-.74a78.12,78.12,0,0,1,14,3.15,50.54,50.54,0,0,1,12.73,6.19c1.8,1.21,3.65,2.43,5.38,3.73,1.36,1,2.7,2.49,2.69,4.26a.14.14,0,0,1-.27,0"/><path class="b" d="M367.54,302.23c-2.77-.37-5.33-1.74-8-2.52a72.4,72.4,0,0,0-10.32-2.57c-6.73-1-13.36-2.15-20.17-2.61a.15.15,0,0,1,0-.3,44.07,44.07,0,0,1,5.63-.15c1.59.09,3.15.45,4.74.55,3.35.2,6.55,1,9.87,1.42a61.8,61.8,0,0,1,9.47,2.44c1.68.49,3.18,1.26,4.8,1.86,1.33.49,2.63,1.25,4,1.61.15,0,.12.29,0,.27"/><path class="b" d="M366.91,303.08c-.56-.73-1.61-.68-2.43-.88a22.86,22.86,0,0,0-3.07-.33c-2-.2-4.09-.4-6.13-.66a40.05,40.05,0,0,1-5.42-1,31.59,31.59,0,0,0-6.29-1.26.14.14,0,1,1,0-.27,33.45,33.45,0,0,1,6.28.88c2.37.46,4.77.84,7.17,1.08,2.12.22,4.28.29,6.38.61a14.76,14.76,0,0,1,2.62.65,1.49,1.49,0,0,1,1,1.14.05.05,0,0,1-.1,0"/><path class="b" d="M356.44,268.32c-4.9-6.34-11.33-11.43-18.1-15.62a20.56,20.56,0,0,0-11.69-3,16.23,16.23,0,0,0-6,1c-1.67.67-4.3,2.57-4.74,4.44-.52,2.22,2,3.32,3.46,4.14a48.14,48.14,0,0,0,5.7,2.36c1.88.72,3.73,1.62,5.66,2.2a35.68,35.68,0,0,0,6.25,1c3.47.41,6.95.63,10.42,1.16,1.5.22,3.14.46,4.61.81a23,23,0,0,1,3.87,1.67c.31.14.08.67-.23.55a21.48,21.48,0,0,0-4.75-1.48c-1.52-.22-3-.55-4.52-.79-3.47-.56-7.07-.79-10.57-1.07a36.68,36.68,0,0,1-10.29-2.82c-1.59-.62-3.24-1.12-4.82-1.79a19.6,19.6,0,0,1-3.82-1.94c-4.6-3.43.2-8.2,4.07-9.48a21.73,21.73,0,0,1,18.4,2.58C346,256.51,352.51,261.39,357,268c.23.34-.3.62-.54.31"/><path class="b" d="M354.29,267.18a65.35,65.35,0,0,0-5.94-3.62c-2.12-1.12-4-2.6-6.08-3.78a39.87,39.87,0,0,0-7.49-2.93,40.32,40.32,0,0,0-7.33-1.91c-.35,0-.22-.52.07-.56,2.54-.29,5.13.9,7.49,1.66a45.47,45.47,0,0,1,7.32,2.76c2.18,1.15,4.05,2.8,6.23,3.95a39.39,39.39,0,0,1,6,4.11c.18.15-.06.45-.25.32"/><path class="b" d="M355.75,268.93a4.32,4.32,0,0,0-1.8-1.24c-.72-.31-1.37-.74-2.07-1.07a19.89,19.89,0,0,1-2-.91c-.71-.42-1.56-.68-2.3-1.07a44.59,44.59,0,0,0-5.06-1.48c-.86-.21-1.74-.24-2.59-.45a5.67,5.67,0,0,1-1.87-.58c-.16-.12,0-.39.17-.28a2.79,2.79,0,0,0,1.11.27,9.22,9.22,0,0,0,1.56.25,24.6,24.6,0,0,1,2.56.35c.9.13,1.7.49,2.58.66a9.3,9.3,0,0,1,2.29.86c1.41.68,2.91,1.19,4.26,2s2.69,1.21,3.57,2.38c.19.25-.23.57-.42.33"/><path class="b" d="M349.74,231.47a70.23,70.23,0,0,0-9.38-12.66,41.38,41.38,0,0,0-6-5.21,15.89,15.89,0,0,0-7.29-3.42,6,6,0,0,0-6.27,3.24c-1.16,2.68,1.28,5.62,3.34,7.08a60.53,60.53,0,0,0,13.59,7.72c1.11.41,2.19.94,3.28,1.4a29.07,29.07,0,0,0,2.93.72,13.88,13.88,0,0,1,6.31,3.39.17.17,0,0,1-.2.26,29.56,29.56,0,0,0-7.4-2.73,13.55,13.55,0,0,1-3-1c-1.43-.61-2.89-1.11-4.31-1.72a50.94,50.94,0,0,1-7.91-4.4c-2.08-1.37-4.55-2.72-6.1-4.7-1.38-1.75-2.48-4.11-1.55-6.31a6.69,6.69,0,0,1,4.55-3.71c5.11-1.18,9.81,2.93,13.48,5.85,2.68,2.14,4.69,5,6.79,7.65a49.83,49.83,0,0,1,5.51,8.35c.14.28-.27.52-.42.25"/><path class="b" d="M351.19,234.15c-1.64-1.59-3-3.41-4.55-5.07a28.68,28.68,0,0,0-2.24-2.17c-.86-.71-1.54-1.56-2.33-2.34-1.71-1.68-3.53-3.29-5.32-4.89-.88-.77-1.79-1.51-2.66-2.3-.38-.34-.77-.65-1.16-1s-.8-1-1.2-1.09c-.23,0-.12-.37.09-.34.67.09,1.22.89,1.71,1.29,1,.75,1.84,1.59,2.76,2.38,1.91,1.65,3.74,3.39,5.59,5.11.82.77,1.5,1.66,2.33,2.41s1.71,1.52,2.51,2.37c1.64,1.74,3,3.69,4.69,5.4.13.13-.08.34-.22.21"/><path class="b" d="M350.05,233.42a86.25,86.25,0,0,1-9.34-7.27c-.68-.62-1.41-1.14-2.15-1.7s-1.16-1.19-1.84-1.69a40.18,40.18,0,0,1-3.9-2.68c-.16-.14.07-.35.23-.23,1.33,1,2.92,1.64,4.27,2.65.63.48,1.13,1.09,1.8,1.53a14.6,14.6,0,0,1,2,1.54c2.91,2.73,6,5.14,9.18,7.58.16.12,0,.39-.21.27"/><path class="b" d="M347.22,204.86a22.62,22.62,0,0,1-1.29-2.93c-.45-1.09-1.06-2.09-1.5-3.17a40.26,40.26,0,0,0-3.4-6.63,46,46,0,0,0-4.09-6.09,16.2,16.2,0,0,0-6.08-4.3c-2.42-.94-5.18-1.79-7.34.08a4.36,4.36,0,0,0-1,1,3.34,3.34,0,0,0,.11,2.91,10.24,10.24,0,0,0,2.3,2.79c1.84,1.68,3.84,3.17,5.7,4.82s3.47,3,5.32,4.45c2.21,1.65,4.88,2.57,7.25,3.95.53.31,1,.68,1.56,1s1,.33,1.44.59c.86.49,1.9,1.84,2.84,2.07.14,0,.15.26,0,.28a2.77,2.77,0,0,1-2-.6,9.82,9.82,0,0,0-1.84-1.16,7.41,7.41,0,0,1-1.41-.7c-2.44-1.57-5.2-2.55-7.64-4.12a46.66,46.66,0,0,1-6-4.93c-2.1-1.9-4.51-3.46-6.46-5.54-1.49-1.59-3.06-3.64-2.12-5.95a5.76,5.76,0,0,1,1.94-2.05,5.08,5.08,0,0,1,2.86-.82,9.38,9.38,0,0,1,3.87.76,14.48,14.48,0,0,1,3.56,1.67,22,22,0,0,1,5.35,5.25c.92,1.3,1.63,2.71,2.47,4s1.51,2.84,2.29,4.3,1.28,2.68,1.95,4c.77,1.52,1,3.29,1.81,4.79a.24.24,0,0,1-.42.24"/><path class="b" d="M349,205.86c-.33-.32-.76-.49-1.11-.77a13.26,13.26,0,0,1-1.13-1.12,23.69,23.69,0,0,1-2.08-2.17c-.29-.37-.51-.79-.8-1.17s-.74-.73-1.1-1.11a20,20,0,0,1-2-2.59,48.89,48.89,0,0,0-4.43-5.52c-.86-.9-1.75-1.78-2.61-2.69s-1.66-1.48-2.34-2.33c-.14-.18.05-.51.26-.34a41.93,41.93,0,0,1,9.37,9.71,30.37,30.37,0,0,0,2.2,3.09,13.7,13.7,0,0,1,1.67,2,16.85,16.85,0,0,0,2.22,2.55c.37.39.67.83,1.05,1.21s.79.59,1.13,1a.22.22,0,0,1-.31.31"/><path class="b" d="M345.7,203.58c-1.1-1.17-2.13-2.44-3.31-3.53-.51-.47-1.1-.83-1.62-1.29s-1-1.1-1.59-1.62c-1.1-1-2.32-1.92-3.46-2.91a39.86,39.86,0,0,0-3.44-3,.15.15,0,0,1,.15-.26,22.25,22.25,0,0,1,3.32,2.64c1.18,1.05,2.5,1.93,3.68,3,.56.51,1.07,1.07,1.62,1.59s1.11.85,1.63,1.32c1.23,1.12,2.28,2.5,3.4,3.74.23.26-.15.64-.38.38"/><path class="b" d="M346.1,182.09c-2.31-3.41-3.58-7.31-5.51-10.93a37.4,37.4,0,0,0-7.85-9.63c-1.46-1.37-4.28-4.26-5.81-1.51a8.05,8.05,0,0,0-.17,6.37,17.53,17.53,0,0,0,3.25,5.85,51,51,0,0,0,4.48,4.08c.83.72,1.64,1.48,2.48,2.2a13,13,0,0,0,3.36,2c.73.33,1.37.85,2.09,1.22a11,11,0,0,0,3.5,1.32c.17,0,.11.25,0,.26a4.85,4.85,0,0,1-2.59-.26c-1-.48-1.94-1.1-2.91-1.66s-2-.82-2.89-1.47a31.21,31.21,0,0,1-2.7-2.3,56.1,56.1,0,0,1-5.47-5,18.32,18.32,0,0,1-3.23-5.83,9.4,9.4,0,0,1-.24-6.19c.49-1.45,1.39-2.76,3.08-2.52,2,.29,3.64,2.23,5.05,3.5a32.9,32.9,0,0,1,4.86,5.28c3.32,4.63,4.74,10.17,7.6,15a.2.2,0,0,1-.35.2"/><path class="b" d="M347.76,182.68c-.69-.48-1.46-.78-2.13-1.29s-1.27-1-1.86-1.48c-1.29-1.15-2.44-2.47-3.61-3.74a36.66,36.66,0,0,1-3.16-3.86,28.68,28.68,0,0,1-2.83-4.32.14.14,0,0,1,.24-.14c.84,1.37,1.94,2.56,2.89,3.85a40.56,40.56,0,0,0,3.44,4.08c1.14,1.18,2.18,2.47,3.37,3.6s2.63,2,3.8,3.1c.09.1,0,.28-.15.2"/><path class="b" d="M344.09,181.52a13.21,13.21,0,0,1-2.18-1.43c-.34-.29-.61-.64-.94-.91s-.74-.49-1.08-.77a22.06,22.06,0,0,1-1.8-1.82c-.72-.73-1.44-1.47-2.15-2.22a.13.13,0,0,1,.18-.18c.71.67,1.41,1.35,2.11,2s1.18,1.28,1.84,1.82c.35.28.75.48,1.1.75a8,8,0,0,1,.81.84,10.2,10.2,0,0,0,2.23,1.68.12.12,0,0,1-.12.21"/><path class="b" d="M344.61,156.74a9,9,0,0,0-1.21-2.42,13.13,13.13,0,0,1-.8-2c-.49-1.55-1-3.08-1.51-4.63a20.15,20.15,0,0,0-1.84-4.57,10.09,10.09,0,0,0-3.42-3.1,17.47,17.47,0,0,0-2-1.24c-.61-.3-1.85-1.09-2.54-.7s-.47,1.75-.37,2.25a17.35,17.35,0,0,0,.72,2.43c1,3.09,3.38,5.45,5.41,7.91a28.16,28.16,0,0,0,3.52,3.64,9.39,9.39,0,0,0,1.91,1.56,3.92,3.92,0,0,1,1.64.92.19.19,0,0,1-.23.3c-.65-.37-1.43-.36-2.07-.75a15.71,15.71,0,0,1-1.76-1.52,34.78,34.78,0,0,1-3.72-3.86,53.36,53.36,0,0,1-3.43-4.21,17.2,17.2,0,0,1-2.36-4.9c-.37-1.16-.9-3-.09-4.08s2.43-.31,3.33.12c3.08,1.47,6.09,3.55,7.25,6.89.71,2.07,1.43,4.16,2,6.26a18.75,18.75,0,0,0,1.13,3.23,7.72,7.72,0,0,1,1.05,2.46c0,.4-.57.39-.62,0"/><path class="b" d="M345.73,157.66a8.27,8.27,0,0,1-1.08-1.21,10.48,10.48,0,0,0-1.23-1.6,20.58,20.58,0,0,1-2.23-2.78,33,33,0,0,1-1.82-3,9,9,0,0,1-1.16-3.12c0-.15.24-.18.27,0a13.63,13.63,0,0,0,1.46,3,30.18,30.18,0,0,0,1.84,2.9,33.71,33.71,0,0,0,2.18,2.75,13.11,13.11,0,0,1,1,1.27,4.5,4.5,0,0,0,.53.83c.2.23.41.43.6.67s-.12.52-.31.3"/><path class="b" d="M343.44,156.56a11,11,0,0,1-3.56-4.39c-.1-.24.27-.36.4-.17a26.92,26.92,0,0,0,1.56,2.23,13.48,13.48,0,0,0,1.9,2c.21.17-.07.55-.3.38"/><path class="b" d="M344.89,129.3a24.52,24.52,0,0,1-1.44-3.52c-.55-1.34-.89-2.72-1.4-4.07-.9-2.4-2.1-5.42-4.24-7-1.13-.84-3.15-1.74-4.22-.39a6.06,6.06,0,0,0-.83,4,7.29,7.29,0,0,0,2.19,3.83q1.53,1.75,3,3.58c.52.65,1,1.35,1.59,2a9.36,9.36,0,0,0,2.07,1.52c.28.17.52.39.79.57a3,3,0,0,0,1.38.43c.77.09,1.55.16,2.32.26a.08.08,0,0,1,0,.16c-1.37.22-3,.57-4.21-.3-.67-.47-1.43-.78-2.09-1.26A9,9,0,0,1,338,127.2q-1.74-2.22-3.59-4.35A9.26,9.26,0,0,1,332,119c-.47-2.24.24-6.52,3.35-6.16,2.85.33,4.73,2.84,5.9,5.21a28.67,28.67,0,0,1,2.16,5.41c.27,1,.63,1.92.93,2.9a14.47,14.47,0,0,0,1,2.72.26.26,0,0,1-.45.26"/><path class="b" d="M346.27,130.58c-.1-.58-.79-1-1.24-1.26a6.93,6.93,0,0,1-1.3-1,26.82,26.82,0,0,1-2.4-3.11,27.62,27.62,0,0,1-1.8-3.4,15.44,15.44,0,0,0-2.21-3.37c-.09-.09,0-.21.13-.13a13,13,0,0,1,2.37,3.09,32.22,32.22,0,0,0,2,3.54c.4.55.85,1.07,1.26,1.62a10.34,10.34,0,0,0,1.4,1.75c.68.6,2.06,1.15,2.21,2.16,0,.25-.34.37-.39.11"/><path class="b" d="M345,131.22a16.65,16.65,0,0,0-1.93-1.4,11.88,11.88,0,0,1-1.67-1.58,12.22,12.22,0,0,1-1.37-1.9c-.48-.76-1-1.49-1.44-2.28a.18.18,0,0,1,.31-.18c.49.7,1,1.39,1.48,2.1.23.34.43.71.67,1a9,9,0,0,0,.81.93,14.58,14.58,0,0,0,1.63,1.61,15,15,0,0,1,1.76,1.42c.16.16-.09.4-.25.24"/><path class="b" d="M347.88,110.12a3.55,3.55,0,0,1-.25-1.07c0-.46,0-.92-.09-1.38a7.66,7.66,0,0,0-.68-2.53,3.61,3.61,0,0,1-.36-.89,3.61,3.61,0,0,0-.31-1.2c-.38-.7-.7-1.43-1.08-2.13a3.38,3.38,0,0,0-1.58-1.63,1.37,1.37,0,0,0-1.89,1,4.68,4.68,0,0,0,1,4.58c.25.29.55.55.78.86a10.15,10.15,0,0,0,.74,1c.58.62,1.29,1.09,1.82,1.77.07.08,0,.19-.11.11-.62-.66-1.39-1.15-2-1.82-.29-.33-.48-.71-.75-1s-.59-.6-.85-.93a5.18,5.18,0,0,1-.88-4.71,1.82,1.82,0,0,1,1.22-1.35,2.35,2.35,0,0,1,1.94.51,5.61,5.61,0,0,1,1.52,2c.21.41.41.82.65,1.22a3.47,3.47,0,0,1,.55,1.24,5.26,5.26,0,0,0,.56,1.52,7.08,7.08,0,0,1,.47,1.63,11.73,11.73,0,0,1,.13,1.57,7.22,7.22,0,0,1,0,.93,3.63,3.63,0,0,1-.25.79.14.14,0,0,1-.26,0"/><path class="b" d="M347.5,109.2c-.3-.46-.64-.89-.92-1.36s-.42-1-.67-1.53-.51-.89-.73-1.35a4.21,4.21,0,0,1-.38-1.43c0-.13.21-.16.24,0a12.49,12.49,0,0,0,1.24,2.77,13.09,13.09,0,0,0,.61,1.45c.26.46.58.88.87,1.33.1.16-.16.31-.26.15"/></svg>
